<?xml version="1.0" encoding="UTF-8"?>
<svg width="1039px" height="401px" viewBox="0 0 1039 401" version="1.1" xmlns="http://www.w3.org/2000/svg" xmlns:xlink="http://www.w3.org/1999/xlink">
    <!-- Generator: Sketch 39.1 (31720) - http://www.bohemiancoding.com/sketch -->
    <title>ConceptualModel</title>
    <desc>Created with Sketch.</desc>
    <defs>
        <rect id="path-1" x="0" y="0" width="359" height="61"></rect>
        <mask id="mask-2" maskContentUnits="userSpaceOnUse" maskUnits="objectBoundingBox" x="0" y="0" width="359" height="61" fill="white">
            <use xlink:href="#path-1"></use>
        </mask>
        <rect id="path-3" x="0" y="0" width="167" height="61"></rect>
        <mask id="mask-4" maskContentUnits="userSpaceOnUse" maskUnits="objectBoundingBox" x="0" y="0" width="167" height="61" fill="white">
            <use xlink:href="#path-3"></use>
        </mask>
        <rect id="path-5" x="0" y="0" width="252" height="61"></rect>
        <mask id="mask-6" maskContentUnits="userSpaceOnUse" maskUnits="objectBoundingBox" x="0" y="0" width="252" height="61" fill="white">
            <use xlink:href="#path-5"></use>
        </mask>
        <rect id="path-7" x="0" y="0" width="268" height="57"></rect>
        <mask id="mask-8" maskContentUnits="userSpaceOnUse" maskUnits="objectBoundingBox" x="0" y="0" width="268" height="57" fill="white">
            <use xlink:href="#path-7"></use>
        </mask>
        <rect id="path-9" x="0" y="0" width="268" height="57"></rect>
        <mask id="mask-10" maskContentUnits="userSpaceOnUse" maskUnits="objectBoundingBox" x="0" y="0" width="268" height="57" fill="white">
            <use xlink:href="#path-9"></use>
        </mask>
        <rect id="path-11" x="0" y="0" width="151" height="61"></rect>
        <mask id="mask-12" maskContentUnits="userSpaceOnUse" maskUnits="objectBoundingBox" x="0" y="0" width="151" height="61" fill="white">
            <use xlink:href="#path-11"></use>
        </mask>
        <rect id="path-13" x="0" y="0" width="110" height="61"></rect>
        <mask id="mask-14" maskContentUnits="userSpaceOnUse" maskUnits="objectBoundingBox" x="0" y="0" width="110" height="61" fill="white">
            <use xlink:href="#path-13"></use>
        </mask>
        <rect id="path-15" x="0" y="0" width="111" height="61"></rect>
        <mask id="mask-16" maskContentUnits="userSpaceOnUse" maskUnits="objectBoundingBox" x="0" y="0" width="111" height="61" fill="white">
            <use xlink:href="#path-15"></use>
        </mask>
        <rect id="path-17" x="0" y="0" width="197" height="61"></rect>
        <mask id="mask-18" maskContentUnits="userSpaceOnUse" maskUnits="objectBoundingBox" x="0" y="0" width="197" height="61" fill="white">
            <use xlink:href="#path-17"></use>
        </mask>
    </defs>
    <g id="Page-1" stroke="none" stroke-width="1" fill="none" fill-rule="evenodd">
        <g id="11.-PROCESS" transform="translate(-98.000000, -258.000000)">
            <g id="ConceptualModel" transform="translate(98.000000, 258.000000)">
                <g id="Group-10">
                    <g id="Models" transform="translate(13.000000, 0.000000)">
                        <text id="Models-and-Apps" font-family="Geometria-Light, Geometria" font-size="36" font-weight="300" fill="#000000">
                            <tspan x="25" y="41">Models and Apps</tspan>
                        </text>
                        <use id="Rectangle-4" stroke="#979797" mask="url(#mask-2)" stroke-width="2" xlink:href="#path-1"></use>
                    </g>
                    <g id="Cubical" transform="translate(109.000000, 87.000000)">
                        <text id="CCHM" font-family="Geometria-Light, Geometria" font-size="36" font-weight="300" fill="#000000">
                            <tspan x="17" y="41">CCHM</tspan>
                        </text>
                        <use id="Rectangle-4" stroke="#979797" mask="url(#mask-4)" stroke-width="2" xlink:href="#path-3"></use>
                    </g>
                    <g id="Proving-Base-Lib" transform="translate(67.000000, 174.000000)">
                        <text id="Proving-Lib" font-family="Geometria-Light, Geometria" font-size="36" font-weight="300" fill="#000000">
                            <tspan x="26.1203219" y="41">Proving Lib</tspan>
                        </text>
                        <use id="Rectangle-4" stroke="#979797" mask="url(#mask-6)" stroke-width="2" xlink:href="#path-5"></use>
                    </g>
                    <path d="M13.5068363,60.6474609 C-42.8681637,141.522461 109.570312,123.492187 109.570312,123.492187" id="Path-2" stroke="#979797"></path>
                    <path d="M95.5,119.5 L108.5,123.5" id="Line" stroke="#979797" stroke-linecap="square"></path>
                    <path d="M97.5,130.5 L108.5,123.5" id="Line" stroke="#979797" stroke-linecap="square"></path>
                    <path d="M276.203125,116.672852 C402.78125,88.1132817 351.824219,174.481444 318.632813,174.481446" id="Path-4" stroke="#979797"></path>
                    <path d="M276.144531,116.643555 L289.149414,120.591797" id="Line" stroke="#979797" stroke-linecap="square"></path>
                    <path d="M276.5,116.5 L287.5,108.5" id="Line" stroke="#979797" stroke-linecap="square"></path>
                    <path d="M275.510254,87.4931641 C364.229004,87.4931656 433.39917,87.4931642 503.449951,87.4931641" id="Path-5" stroke="#979797"></path>
                    <path d="M492.5,81.5 L503.5,87.5" id="Line" stroke="#979797" stroke-linecap="square"></path>
                    <path d="M492.5,93.5 L503.5,87.5" id="Line" stroke="#979797" stroke-linecap="square"></path>
                    <circle id="Oval" stroke="#979797" fill="#FFFFFF" cx="32" cy="117" r="23"></circle>
                    <text id="1" font-family="Geometria-Light, Geometria" font-size="24" font-weight="300" fill="#000000">
                        <tspan x="27" y="125">1</tspan>
                    </text>
                    <g id="Group-11" transform="translate(326.000000, 111.000000)">
                        <path d="M23,46 C35.7025492,46 46,35.7025492 46,23 C46,10.2974508 35.7025492,0 23,0 C10.2974508,0 0,10.2974508 0,23 C0,35.7025492 10.2974508,46 23,46 Z" id="Oval" stroke="#979797" fill="#FFFFFF"></path>
                        <text id="2" font-family="Geometria-Light, Geometria" font-size="24" font-weight="300" fill="#000000">
                            <tspan x="18" y="31">2</tspan>
                        </text>
                    </g>
                    <g id="Group-11" transform="translate(364.000000, 68.000000)">
                        <path d="M23,46 C35.7025492,46 46,35.7025492 46,23 C46,10.2974508 35.7025492,0 23,0 C10.2974508,0 0,10.2974508 0,23 C0,35.7025492 10.2974508,46 23,46 Z" id="Oval" stroke="#979797" fill="#FFFFFF"></path>
                        <text id="3" font-family="Geometria-Light, Geometria" font-size="24" font-weight="300" fill="#000000">
                            <tspan x="15" y="32">3</tspan>
                        </text>
                    </g>
                </g>
                <g id="Group-18" transform="translate(427.000000, 95.000000)">
                    <g id="Group-12" transform="translate(52.000000, 39.500000) scale(1, -1) translate(-52.000000, -39.500000) translate(23.000000, 0.000000)" stroke="#979797">
                        <path d="M53.1011092,77.8984403 C-35.1132817,87.144535 4.26895615,-12.1885053 53.1011079,14.9912832" id="Path-6"></path>
                        <path d="M42.054878,0.850949796 L56.2134146,16.1680461" id="Line" stroke-linecap="square"></path>
                        <path d="M36.314204,16.1680461 L56.2134146,16.1680461" id="Line" stroke-linecap="square"></path>
                    </g>
                    <g id="Group-17" transform="translate(0.000000, 17.000000)">
                        <circle id="Oval" stroke="#979797" fill="#FFFFFF" cx="23.2348128" cy="23" r="23"></circle>
                        <text id="4" font-family="Geometria-Light, Geometria" font-size="24" font-weight="300" fill="#000000">
                            <tspan x="16" y="31">4</tspan>
                        </text>
                    </g>
                    <g id="Group-12" transform="translate(63.500000, 141.500000) scale(1, -1) translate(-63.500000, -141.500000) translate(29.000000, 93.000000)" stroke="#979797">
                        <path d="M49.4453121,96.9570313 C-12.1132811,96.956934 -25.1445317,7.11328124 67.1347664,9.34374999" id="Path-6"></path>
                        <path d="M48.5,0.5 L67.4999993,9.5" id="Line" stroke-linecap="square"></path>
                        <path d="M48.314204,21.1680461 L66.5000009,10.5" id="Line" stroke-linecap="square"></path>
                    </g>
                    <g id="Group-17" transform="translate(23.000000, 142.000000)">
                        <circle id="Oval" stroke="#979797" fill="#FFFFFF" cx="23.2348128" cy="23" r="23"></circle>
                        <text id="7" font-family="Geometria-Light, Geometria" font-size="24" font-weight="300" fill="#000000">
                            <tspan x="16" y="31">7</tspan>
                        </text>
                    </g>
                </g>
                <g id="Om" transform="translate(504.000000, 58.000000)">
                    <text id="Processes" font-family="Geometria-Light, Geometria" font-size="36" font-weight="300" fill="#000000">
                        <tspan x="45.8738739" y="41">Processes</tspan>
                    </text>
                    <use id="Rectangle-4" stroke="#979797" mask="url(#mask-8)" stroke-width="2" xlink:href="#path-7"></use>
                </g>
                <g id="Group-15" transform="translate(808.500000, 61.500000) scale(-1, 1) translate(-808.500000, -61.500000) translate(773.000000, 35.000000)" stroke="#979797">
                    <path d="M0.129173801,52.7099626 C0.127616545,-31.5615252 63.7928617,7.59277355 69.7386558,23.5039066" id="Path-6"></path>
                    <path d="M64.6780822,5.5 L70.9154671,23.7802734" id="Line" stroke-linecap="square"></path>
                    <path d="M54.9520548,16.5 L70.5136986,23.5" id="Line" stroke-linecap="square"></path>
                </g>
                <g id="Group-15" transform="translate(807.500000, 166.500000) scale(-1, -1) translate(-807.500000, -166.500000) translate(772.000000, 146.000000)" stroke="#979797">
                    <path d="M0,41 C25.6357832,-11.5421078 47.358765,-3.134676 70.6464825,18.5393122" id="Path-6"></path>
                    <path d="M59.5,0.500000004 L70.927774,17.9473762" id="Line" stroke-linecap="square"></path>
                    <path d="M51.5,11.5 L70.5202703,17.7358491" id="Line" stroke-linecap="square"></path>
                </g>
                <g id="Om" transform="translate(504.000000, 138.000000)">
                    <text id="Streams" font-family="Geometria-Light, Geometria" font-size="36" font-weight="300" fill="#000000">
                        <tspan x="65.8738739" y="38.56">Streams</tspan>
                    </text>
                    <use id="Rectangle-4" stroke="#979797" mask="url(#mask-10)" stroke-width="2" xlink:href="#path-9"></use>
                </g>
                <g id="Group-17" transform="translate(797.000000, 22.000000)">
                    <circle id="Oval" stroke="#979797" fill="#FFFFFF" cx="23.2348128" cy="23" r="23"></circle>
                    <text id="5" font-family="Geometria-Light, Geometria" font-size="24" font-weight="300" fill="#000000">
                        <tspan x="16" y="31">5</tspan>
                    </text>
                </g>
                <g id="Group-17" transform="translate(797.000000, 162.000000)">
                    <circle id="Oval" stroke="#979797" fill="#FFFFFF" cx="23.2348128" cy="23" r="23"></circle>
                    <text id="6" font-family="Geometria-Light, Geometria" font-size="24" font-weight="300" fill="#000000">
                        <tspan x="16" y="31">6</tspan>
                    </text>
                </g>
                <g id="Erlang" transform="translate(811.000000, 261.000000)">
                    <text font-family="Geometria-Light, Geometria" font-size="36" font-weight="300" fill="#000000">
                        <tspan x="16" y="42">Erlang</tspan>
                    </text>
                    <use id="Rectangle-4" stroke="#979797" mask="url(#mask-12)" stroke-width="2" xlink:href="#path-11"></use>
                </g>
                <g id="O" transform="translate(737.000000, 340.000000)">
                    <text id="CPS" font-family="Geometria-Light, Geometria" font-size="36" font-weight="300" fill="#000000">
                        <tspan x="22" y="45">CPS</tspan>
                    </text>
                    <use id="Rectangle-4" stroke="#979797" mask="url(#mask-14)" stroke-width="2" xlink:href="#path-13"></use>
                </g>
                <g id="Om" transform="translate(522.000000, 252.000000)">
                    <text id="PTS" font-family="Geometria-Light, Geometria" font-size="36" font-weight="300" fill="#000000">
                        <tspan x="19" y="42">PTS</tspan>
                    </text>
                    <use id="Rectangle-4" stroke="#979797" mask="url(#mask-16)" stroke-width="2" xlink:href="#path-15"></use>
                </g>
                <g id="Runtime-Base-Lib" transform="translate(842.000000, 85.000000)">
                    <g id="Group-13">
                        <text id="Runtime" font-family="Geometria-Light, Geometria" font-size="36" font-weight="300" fill="#000000">
                            <tspan x="24.1203219" y="42">Runtime</tspan>
                        </text>
                        <use id="Rectangle-4" stroke="#979797" mask="url(#mask-18)" stroke-width="2" xlink:href="#path-17"></use>
                    </g>
                </g>
                <g id="Group-20" transform="translate(632.000000, 251.000000)" stroke="#979797">
                    <path d="M0.557617188,0.768554688 C80.0611691,0.768554688 121.581845,13.303662 160,90" id="Path-8"></path>
                </g>
                <g id="Group-19" transform="translate(632.000000, 208.000000)" stroke="#979797">
                    <path d="M0.84375,43.989257 C78.0146484,-60.3564455 179.870168,53.7292335 179.870168,53.7292335" id="Path-7"></path>
                    <path d="M174.5,37.5 L179.5,53.5000007" id="Line" stroke-linecap="square"></path>
                    <path d="M164.5,47.5 L180.655847,54.0285714" id="Line" stroke-linecap="square"></path>
                </g>
                <g id="Group-16" transform="translate(744.000000, 205.000000)">
                    <circle id="Oval" stroke="#979797" fill="#FFFFFF" cx="23" cy="23" r="23"></circle>
                    <text id="8" font-family="Geometria-Light, Geometria" font-size="24" font-weight="300" fill="#000000">
                        <tspan x="14" y="30">8</tspan>
                    </text>
                </g>
                <g id="Group-17" transform="translate(739.000000, 276.000000)">
                    <circle id="Oval" stroke="#979797" fill="#FFFFFF" cx="23.2348128" cy="23" r="23"></circle>
                    <text id="9" font-family="Geometria-Light, Geometria" font-size="24" font-weight="300" fill="#000000">
                        <tspan x="16" y="31">9</tspan>
                    </text>
                </g>
            </g>
        </g>
    </g>
</svg>