<svg width="793" height="793" viewBox="0 0 793 793" version="1.1" xmlns="http://www.w3.org/2000/svg" xmlns:xlink="http://www.w3.org/1999/xlink" xmlns:figma="http://www.figma.com/figma/ns">
<title>om</title>
<desc>Created using Figma</desc>
<g id="Canvas" transform="translate(140 -262)" figma:type="canvas">
<g id="om" style="mix-blend-mode:normal;" filter="url(#filter0_d)" figma:type="frame">
<g id="g" style="mix-blend-mode:normal;" figma:type="frame">
<g id="g" style="mix-blend-mode:normal;" figma:type="frame">
<g id="Subtract" style="mix-blend-mode:normal;" figma:type="vector-operation">
<use xlink:href="#path0_fill" transform="translate(-100 294.35)" fill="#F9FAFC" style="mix-blend-mode:normal;"/>
</g>
<g id="path" style="mix-blend-mode:normal;" figma:type="vector">
<use xlink:href="#path1_fill" transform="translate(84.137 555.504)" fill="#F9FAFC" style="mix-blend-mode:normal;"/>
</g>
<g id="path" style="mix-blend-mode:normal;" figma:type="vector">
<use xlink:href="#path2_fill" transform="translate(69.6412 442.428)" fill="#F9FAFC" style="mix-blend-mode:normal;"/>
</g>
<g id="path" style="mix-blend-mode:normal;" figma:type="vector">
<use xlink:href="#path3_fill" transform="translate(166.504 425.832)" fill="#F9FAFC" style="mix-blend-mode:normal;"/>
</g>
</g>
</g>
</g>
</g>
<defs>
<filter id="filter0_d" filterUnits="userSpaceOnUse" x="-140" y="262" width="793" height="793" color-interpolation-filters="sRGB">
<feFlood flood-opacity="0" result="BackgroundImageFix"/>
<desc>type="dropShadow" x="0" y="8" size="40" spread="0" color="0.337255,0.8,0.94902,0.71" blend="normal"</desc>
<feColorMatrix in="SourceAlpha" type="matrix" values="0 0 0 0 0 0 0 0 0 0 0 0 0 0 0 0 0 0 255 0"/>
<feOffset dx="0" dy="8"/>
<feGaussianBlur stdDeviation="20"/>
<feColorMatrix type="matrix" values="0 0 0 0 0.337255 0 0 0 0 0.8 0 0 0 0 0.94902 0 0 0 0.71 0"/>
<feBlend mode="normal" in2="BackgroundImageFix" result="effect1_dropShadow"/>
<feBlend mode="normal" in="SourceGraphic" in2="effect1_dropShadow" result="shape"/>
</filter>
<path id="path0_fill" fill-rule="evenodd" d="M 712.5 356.25C 712.5 553.001 553.001 712.5 356.25 712.5C 159.499 712.5 0 553.001 0 356.25C 0 159.499 159.499 0 356.25 0C 553.001 0 712.5 159.499 712.5 356.25ZM 642.032 357.25C 642.032 514.099 514.881 641.25 358.032 641.25C 201.183 641.25 74.0317 514.099 74.0317 357.25C 74.0317 200.401 201.183 73.25 358.032 73.25C 514.881 73.25 642.032 200.401 642.032 357.25Z"/>
<path id="path1_fill" fill-rule="evenodd" d="M 19.0329 9.74485C 19.0329 9.74485 77.3889 18.0512 91.1237 10.2232C 49.5087 84.4379 21.9841 134.887 34.9852 207.415C 47.9862 279.942 94.6633 278.436 99.7674 278.436C 104.871 278.436 161.384 276.71 161.384 226.209C 161.384 175.708 109.058 169.393 89.6756 191.691C 91.1237 149.328 99.7674 94.1309 129.914 61.7456C 122.091 55.1231 91.1237 66.1929 91.1237 66.1929L 116.628 10.123C 116.628 10.123 227.118 19.1017 240.406 6.9976C 217.698 55.582 210.714 47.7683 200.443 64.9291C 179.962 64.9291 289.298 269.125 289.298 269.125C 289.298 269.125 274.755 149.357 271.228 98.381C 267.701 47.4049 235.477 65.4915 235.477 65.4915L 252.858 10.2232C 252.858 10.2232 311.525 6.48836 327.935 1.01113e-05C 295.925 55.2683 292.381 298.695 305.234 320.543C 318.086 342.392 186.366 91.6809 153.446 82.8445C 112.436 108.31 104.846 129.386 99.7674 169.393C 153.446 102.101 214.621 159.341 214.621 207.415C 214.621 255.488 177.021 297.974 112.436 297.974C 47.8505 297.974 14.0807 233.785 19.0329 153.866C 23.985 73.9466 13.0269 69.7158 1.45703e-06 62.3661C 1.45703e-06 29.3441 19.0329 9.74485 19.0329 9.74485Z"/>
<path id="path2_fill" fill-rule="evenodd" d="M -6.08203e-06 33.0963C 72.4917 44.8772 112.342 39.6833 127.331 95.4106C 198.397 -22.1009 204.261 18.8236 313.04 4.75391e-06C 280.017 112.809 205.612 -1.97803 127.331 112.809C 88.7091 54.2534 32.5156 107.085 -6.08203e-06 33.0963Z"/>
<path id="path3_fill" fill-rule="evenodd" d="M 5.46258 22.3958C 30.9711 -14.3744 68.0106 -3.81342 59.8083 39.0852C 51.606 81.9838 -20.0459 59.166 5.46258 22.3958Z"/>
</defs>
</svg>
