<?xml version="1.0" encoding="UTF-8"?>
<svg width="825px" height="826px" viewBox="0 0 825 835" version="1.1" xmlns="http://www.w3.org/2000/svg" xmlns:xlink="http://www.w3.org/1999/xlink">
    <title>Synrc Neo</title>
<g id="Canvas">
<g id="om" style="mix-blend-mode:normal;" filter="url(#filter0_d)">
<g id="path0" style="mix-blend-mode:normal;">
<use xlink:href="#path0_fill" fill="#F9FAFC" style="mix-blend-mode:normal;"/>
</g>
<g id="path1" style="mix-blend-mode:normal;">
<use xlink:href="#path1_fill" fill="#F9FAFC" style="mix-blend-mode:normal;"/>
</g>
</g>
</g>
<defs>
<desc>type="dropShadow" x="0" y="8" size="40" spread="0" color="0.337255,0.8,0.94902,0.71" blend="normal"</desc>
<filter id="filter0_d" filterUnits="userSpaceOnUse" x="0" y="0" width="825" height="826" color-interpolation-filters="sRGB">
<feFlood flood-opacity="0" result="BackgroundImageFix"/>
<feColorMatrix in="SourceAlpha" type="matrix" values="0 0 0 0 0 0 0 0 0 0 0 0 0 0 0 0 0 0 255 0"/>
<feOffset dx="0" dy="8"/>
<feGaussianBlur stdDeviation="20"/>
<feColorMatrix type="matrix" values="0 0 0 0 0.337255 0 0 0 0 0.8 0 0 0 0 0.94902 0 0 0 0.71 0"/>
<feBlend mode="normal" in2="BackgroundImageFix" result="effect1_dropShadow"/>
<feBlend mode="normal" in="SourceGraphic" in2="effect1_dropShadow" result="shape"/>
</filter>
<path id="path0_fill" fill-rule="evenodd" d="M443.263915,661.049963 C489.655457,661.049963 527.263018,623.442401 527.263018,577.05086 C527.263018,530.659318 489.655457,493.051757 443.263915,493.051757 C396.872374,493.051757 359.264812,530.659318 359.264812,577.05086 C359.264812,623.442401 396.872374,661.049963 443.263915,661.049963 L443.263915,661.049963 Z"/>
<path id="path1_fill" fill-rule="evenodd" d="M412.658617,825.320116 C640.33237,825.320116 824.900369,640.752118 824.900369,413.078364 C824.900369,185.403577 640.33237,0.836612 412.658617,0.836612 C184.983829,0.836612 0.4168646,185.403577 0.4168646,413.078364 C0.4168646,640.752118 184.983829,825.320116 412.658617,825.320116 Z M594.456532,646.233658 C557.50985,738.929899 343.406446,832.349786 171.801466,635.544567 C24.888813,467.05775 83.007336,245.79592 206.851522,152.097698 C410.57892,-2.0386832 585.493375,126.25182 585.493375,126.25182 C431.539967,83.499284 360.241661,263.498394 477.42736,373.182324 C538.984294,430.798623 655.700924,492.57733 594.456532,646.233658 Z M534.210601,328.931466 C571.687124,376.964479 718.542872,443.247009 684.116694,604.497925 C824.156555,376.63263 684.116701,227.586234 684.116699,227.586236 C594.700748,137.838025 442.457734,211.332722 534.210601,328.931466 Z"/>
</defs>
</svg>
