<svg width="715" height="715" viewBox="0 0 715 715" version="1.1" xmlns="http://www.w3.org/2000/svg" xmlns:xlink="http://www.w3.org/1999/xlink" xmlns:figma="http://www.figma.com/figma/ns">
<title>om</title>
<desc>Created using Figma</desc>
<g id="Canvas" transform="translate(101 -293)" figma:type="canvas">
<g id="om" style="mix-blend-mode:normal;" figma:type="frame">
<g id="g" style="mix-blend-mode:normal;" figma:type="frame">
<g id="g" style="mix-blend-mode:normal;" figma:type="frame">
<g id="Subtract" style="mix-blend-mode:normal;" figma:type="vector-operation">
<use xlink:href="#path0_fill" transform="translate(-100 294.35)" fill="#F9FAFC" style="mix-blend-mode:normal;"/>
<use xlink:href="#path1_stroke" transform="translate(-100 294.35)" fill="#C2C2C2" style="mix-blend-mode:normal;"/>
</g>
<g id="path" style="mix-blend-mode:normal;" figma:type="vector">
<use xlink:href="#path2_fill" transform="translate(84.137 555.504)" fill="#F9FAFC" style="mix-blend-mode:normal;"/>
<use xlink:href="#path3_stroke" transform="translate(84.137 555.504)" fill="#C2C2C2" style="mix-blend-mode:normal;"/>
</g>
<g id="path" style="mix-blend-mode:normal;" figma:type="vector">
<use xlink:href="#path4_fill" transform="translate(69.6412 442.428)" fill="#F9FAFC" style="mix-blend-mode:normal;"/>
<use xlink:href="#path5_stroke" transform="translate(69.6412 442.428)" fill="#C2C2C2" style="mix-blend-mode:normal;"/>
</g>
<g id="path" style="mix-blend-mode:normal;" figma:type="vector">
<use xlink:href="#path6_fill" transform="translate(166.504 425.832)" fill="#F9FAFC" style="mix-blend-mode:normal;"/>
<use xlink:href="#path7_stroke" transform="translate(166.504 425.832)" fill="#C2C2C2" style="mix-blend-mode:normal;"/>
</g>
</g>
</g>
</g>
</g>
<defs>
<path id="path0_fill" fill-rule="evenodd" d="M 712.5 356.25C 712.5 553.001 553.001 712.5 356.25 712.5C 159.499 712.5 0 553.001 0 356.25C 0 159.499 159.499 0 356.25 0C 553.001 0 712.5 159.499 712.5 356.25ZM 642.032 357.25C 642.032 514.099 514.881 641.25 358.032 641.25C 201.183 641.25 74.0317 514.099 74.0317 357.25C 74.0317 200.401 201.183 73.25 358.032 73.25C 514.881 73.25 642.032 200.401 642.032 357.25Z"/>
<path id="path1_stroke" d="M 356.25 713.5C 553.554 713.5 713.5 553.554 713.5 356.25L 711.5 356.25C 711.5 552.449 552.449 711.5 356.25 711.5L 356.25 713.5ZM -1 356.25C -1 553.554 158.946 713.5 356.25 713.5L 356.25 711.5C 160.051 711.5 1 552.449 1 356.25L -1 356.25ZM 356.25 -1C 158.946 -1 -1 158.946 -1 356.25L 1 356.25C 1 160.051 160.051 1 356.25 1L 356.25 -1ZM 713.5 356.25C 713.5 158.946 553.554 -1 356.25 -1L 356.25 1C 552.449 1 711.5 160.051 711.5 356.25L 713.5 356.25ZM 358.032 642.25C 515.433 642.25 643.032 514.651 643.032 357.25L 641.032 357.25C 641.032 513.547 514.328 640.25 358.032 640.25L 358.032 642.25ZM 73.0317 357.25C 73.0317 514.651 200.631 642.25 358.032 642.25L 358.032 640.25C 201.735 640.25 75.0317 513.547 75.0317 357.25L 73.0317 357.25ZM 358.032 72.25C 200.631 72.25 73.0317 199.849 73.0317 357.25L 75.0317 357.25C 75.0317 200.953 201.735 74.25 358.032 74.25L 358.032 72.25ZM 643.032 357.25C 643.032 199.849 515.433 72.25 358.032 72.25L 358.032 74.25C 514.328 74.25 641.032 200.953 641.032 357.25L 643.032 357.25Z"/>
<path id="path2_fill" fill-rule="evenodd" d="M 19.0329 9.74485C 19.0329 9.74485 77.3889 18.0512 91.1237 10.2232C 49.5087 84.4379 21.9841 134.887 34.9852 207.415C 47.9862 279.942 94.6633 278.436 99.7674 278.436C 104.871 278.436 161.384 276.71 161.384 226.209C 161.384 175.708 109.058 169.393 89.6756 191.691C 91.1237 149.328 99.7674 94.1309 129.914 61.7456C 122.091 55.1231 91.1237 66.1929 91.1237 66.1929L 116.628 10.123C 116.628 10.123 227.118 19.1017 240.406 6.9976C 217.698 55.582 210.714 47.7683 200.443 64.9291C 179.962 64.9291 289.298 269.125 289.298 269.125C 289.298 269.125 274.755 149.357 271.228 98.381C 267.701 47.4049 235.477 65.4915 235.477 65.4915L 252.858 10.2232C 252.858 10.2232 311.525 6.48836 327.935 1.01113e-05C 295.925 55.2683 292.381 298.695 305.234 320.543C 318.086 342.392 186.366 91.6809 153.446 82.8445C 112.436 108.31 104.846 129.386 99.7674 169.393C 153.446 102.101 214.621 159.341 214.621 207.415C 214.621 255.488 177.021 297.974 112.436 297.974C 47.8505 297.974 14.0807 233.785 19.0329 153.866C 23.985 73.9466 13.0269 69.7158 1.45703e-06 62.3661C 1.45703e-06 29.3441 19.0329 9.74485 19.0329 9.74485Z"/>
<path id="path3_stroke" d="M 19.0329 9.74485L 19.1738 8.75483L 18.67 8.68312L 18.3155 9.04819L 19.0329 9.74485ZM 91.1237 10.2232L 91.996 10.7123L 93.7573 7.5712L 90.6286 9.35439L 91.1237 10.2232ZM 161.384 226.209L 162.384 226.209L 162.384 226.209L 161.384 226.209ZM 89.6756 191.691L 88.6762 191.657L 88.5798 194.476L 90.4303 192.347L 89.6756 191.691ZM 129.914 61.7456L 130.646 62.4269L 131.36 61.6596L 130.56 60.9823L 129.914 61.7456ZM 91.1237 66.1929L 90.2135 65.7788L 89.235 67.93L 91.4604 67.1345L 91.1237 66.1929ZM 116.628 10.123L 116.709 9.12628L 116.009 9.06937L 115.718 9.70895L 116.628 10.123ZM 240.406 6.9976L 241.312 7.42103L 239.733 6.25831L 240.406 6.9976ZM 200.443 64.9291L 200.443 65.9291L 201.01 65.9291L 201.301 65.4427L 200.443 64.9291ZM 289.298 269.125L 288.416 269.597L 290.29 269.004L 289.298 269.125ZM 235.477 65.4915L 234.523 65.1915L 233.766 67.5985L 235.966 66.3636L 235.477 65.4915ZM 252.858 10.2232L 252.794 9.22521L 252.11 9.26879L 251.904 9.92319L 252.858 10.2232ZM 327.935 1.01113e-05L 328.8 0.501193L 330.242 -1.98732L 327.567 -0.92994L 327.935 1.01113e-05ZM 153.446 82.8445L 153.705 81.8786L 153.287 81.7663L 152.919 81.9949L 153.446 82.8445ZM 99.7674 169.393L 98.7754 169.267L 98.3265 172.803L 100.549 170.016L 99.7674 169.393ZM 214.621 207.415L 213.621 207.415L 213.621 207.415L 214.621 207.415ZM 19.0329 153.866L 20.031 153.928L 19.0329 153.866ZM 1.45703e-06 62.3661L -0.999999 62.3661L -0.999999 62.9501L -0.491381 63.237L 1.45703e-06 62.3661ZM 19.0329 9.74485C 18.8919 10.7349 18.8923 10.7349 18.8928 10.735C 18.8932 10.7351 18.894 10.7352 18.8949 10.7353C 18.8968 10.7356 18.8996 10.736 18.9032 10.7365C 18.9104 10.7375 18.9213 10.739 18.9356 10.741C 18.9639 10.745 19.0065 10.751 19.0624 10.7588C 19.1737 10.7744 19.3397 10.7974 19.5561 10.827C 19.9878 10.8861 20.6244 10.9719 21.4377 11.0781C 23.0625 11.2902 25.403 11.585 28.2509 11.9138C 33.9426 12.5709 41.6901 13.3669 49.8606 13.9173C 58.0294 14.4673 66.6668 14.773 74.1086 14.45C 81.4983 14.1284 87.9505 13.1827 91.6189 11.092L 90.6286 9.35439C 87.4295 11.1777 81.4367 12.1292 74.0217 12.4519C 66.6588 12.773 58.132 12.4699 49.9949 11.9218C 41.8595 11.3741 34.1596 10.5827 28.4803 9.92701C 25.6427 9.59941 23.3169 9.30644 21.6966 9.0949C 20.8875 8.98925 20.2569 8.90425 19.8271 8.84545C 19.6127 8.81612 19.4494 8.79347 19.339 8.77805C 19.284 8.77038 19.2427 8.76457 19.2148 8.76064C 19.201 8.75869 19.1908 8.75724 19.1838 8.75625C 19.1804 8.75576 19.1779 8.75541 19.1761 8.75517C 19.1753 8.75505 19.1747 8.75496 19.1743 8.7549C 19.1739 8.75485 19.1738 8.75483 19.0329 9.74485ZM 90.2515 9.73409C 48.6572 83.9119 20.9282 134.664 34.0009 207.591L 35.9695 207.238C 23.0401 135.111 50.3603 84.9638 91.996 10.7123L 90.2515 9.73409ZM 34.0009 207.591C 40.5414 244.078 55.5925 262.106 69.8085 270.972C 84.0088 279.778 97.2299 279.436 99.7674 279.436L 99.7674 277.436C 97.2008 277.436 84.5313 277.847 70.8668 269.275C 57.218 260.762 42.43 243.279 35.9695 207.238L 34.0009 207.591ZM 99.7674 279.436C 102.333 279.436 117.95 278.979 132.905 272.17C 147.927 265.309 162.384 251.951 162.384 226.209L 160.384 226.209C 160.384 250.969 146.584 263.724 132.074 270.351C 117.497 277.031 102.305 277.436 99.7674 277.436L 99.7674 279.436ZM 162.384 226.209C 162.384 200.543 149.04 185.945 133.11 180.7C 117.291 175.492 98.9193 179.532 88.9208 191.035L 90.4303 192.347C 99.8138 181.552 117.296 177.6 132.485 182.6C 147.564 187.565 160.384 201.375 160.384 226.209L 162.384 226.209ZM 90.675 191.725C 92.1226 149.379 100.77 94.5217 130.646 62.4269L 129.182 61.0642C 98.765 93.74 90.1249 149.277 88.6762 191.657L 90.675 191.725ZM 130.56 60.9823C 128.297 59.0668 124.552 58.5398 120.526 58.6469C 116.454 58.7576 111.755 59.5342 107.368 60.5096C 102.979 61.4864 98.825 62.6739 95.7895 63.6112C 94.2686 64.081 93.0166 64.4913 92.151 64.7823C 91.7168 64.9283 91.3755 65.0456 91.1453 65.1256C 91.0294 65.1658 90.9398 65.1972 90.8803 65.2182C 90.8502 65.2288 90.8269 65.2371 90.8116 65.2425C 90.8038 65.2453 90.7977 65.2475 90.7938 65.2489C 90.7917 65.2496 90.7901 65.2502 90.7891 65.2506C 90.7885 65.2507 90.788 65.2509 90.7877 65.251C 90.7874 65.2511 90.7871 65.2512 91.1237 66.1929C 91.4604 67.1345 91.4604 67.1345 91.4605 67.1345C 91.4607 67.1344 91.4609 67.1343 91.4613 67.1342C 91.4621 67.1339 91.4633 67.1335 91.465 67.1329C 91.4686 67.1316 91.4737 67.1298 91.4808 67.1272C 91.4954 67.1221 91.5166 67.1145 91.5453 67.1044C 91.6035 67.0839 91.6887 67.054 91.8016 67.0148C 92.0288 66.9359 92.3605 66.8218 92.7883 66.678C 93.6467 66.3895 94.8752 65.9868 96.3797 65.5222C 99.395 64.5909 103.471 63.4248 107.802 62.4619C 112.135 61.4977 116.644 60.7485 120.579 60.6462C 124.559 60.5403 127.619 61.1131 129.267 62.5088L 130.56 60.9823ZM 92.034 66.6069L 117.538 10.537L 115.718 9.70895L 90.2135 65.7788L 92.034 66.6069ZM 116.628 10.123C 116.547 11.1197 116.548 11.1197 116.548 11.1198C 116.549 11.1199 116.551 11.12 116.552 11.1201C 116.556 11.1204 116.561 11.1208 116.568 11.1214C 116.581 11.1225 116.601 11.1241 116.628 11.1262C 116.681 11.1305 116.761 11.1369 116.866 11.1453C 117.076 11.1619 117.388 11.1864 117.795 11.2179C 118.608 11.2808 119.804 11.3715 121.329 11.4825C 124.378 11.7045 128.751 12.0083 134.038 12.3349C 144.609 12.9878 158.854 13.7328 173.509 14.099C 188.164 14.4651 203.268 14.4521 215.53 13.5899C 221.667 13.1577 227.143 12.5066 231.48 11.5852C 235.782 10.6706 239.202 9.44682 241.08 7.73689L 239.733 6.25831C 238.288 7.5744 235.349 8.71784 231.064 9.62896C 226.816 10.5334 221.479 11.1666 215.39 11.5948C 203.197 12.4534 188.188 12.4652 173.559 12.0996C 158.931 11.7342 144.723 10.991 134.161 10.3387C 128.882 10.0126 124.52 9.70955 121.474 9.4878C 119.952 9.37698 118.761 9.2866 117.949 9.22385C 117.544 9.1925 117.234 9.16811 117.025 9.15152C 116.92 9.14323 116.841 9.13692 116.788 9.13267C 116.762 9.13055 116.742 9.12895 116.729 9.12787C 116.722 9.12734 116.717 9.12694 116.714 9.12667C 116.712 9.12654 116.711 9.12644 116.71 9.12638C 116.709 9.12631 116.709 9.12628 116.628 10.123ZM 239.5 6.57417C 228.17 30.8157 220.8 40.905 215.031 47.0636C 209.33 53.1493 204.79 55.7194 199.585 64.4156L 201.301 65.4427C 206.367 56.978 210.454 54.8746 216.49 48.4309C 222.458 42.06 229.934 31.764 241.312 7.42103L 239.5 6.57417ZM 200.443 63.9291C 199.576 63.9291 198.8 64.208 198.196 64.8011C 197.614 65.3714 197.275 66.1507 197.089 67.0105C 196.72 68.7088 196.878 71.0656 197.397 73.8845C 198.441 79.5323 201.059 87.5972 204.753 97.194C 212.135 116.367 223.899 141.93 236.29 167.463C 248.682 192.997 261.715 218.533 271.646 237.68C 276.613 247.254 280.805 255.233 283.755 260.818C 285.231 263.61 286.396 265.805 287.192 267.301C 287.59 268.049 287.896 268.623 288.102 269.01C 288.206 269.203 288.284 269.35 288.337 269.448C 288.363 269.497 288.383 269.534 288.396 269.559C 288.403 269.572 288.408 269.581 288.411 269.587C 288.413 269.59 288.414 269.593 288.415 269.594C 288.416 269.596 288.416 269.597 289.298 269.125C 290.179 268.653 290.179 268.652 290.178 268.65C 290.177 268.649 290.176 268.646 290.174 268.643C 290.171 268.637 290.166 268.628 290.159 268.616C 290.146 268.591 290.127 268.554 290.1 268.505C 290.048 268.407 289.97 268.261 289.867 268.068C 289.661 267.682 289.355 267.109 288.958 266.362C 288.162 264.866 286.998 262.674 285.524 259.883C 282.575 254.301 278.386 246.328 273.422 236.759C 263.493 217.618 250.472 192.106 238.09 166.59C 225.707 141.075 213.978 115.589 206.619 96.4754C 202.944 86.9288 200.38 79.041 199.364 73.5218C 198.854 70.7572 198.763 68.727 199.043 67.4342C 199.181 66.7984 199.39 66.4311 199.596 66.2287C 199.779 66.0491 200.03 65.9291 200.443 65.9291L 200.443 63.9291ZM 289.298 269.125C 290.29 269.004 290.29 269.004 290.29 269.003C 290.29 269.002 290.29 269 290.29 268.999C 290.289 268.995 290.289 268.99 290.288 268.982C 290.286 268.968 290.283 268.946 290.28 268.917C 290.273 268.86 290.262 268.773 290.249 268.659C 290.221 268.431 290.18 268.092 290.126 267.647C 290.019 266.758 289.861 265.447 289.659 263.76C 289.254 260.386 288.673 255.509 287.963 249.497C 286.545 237.473 284.617 220.912 282.579 202.757C 278.503 166.447 273.988 123.782 272.226 98.312L 270.23 98.45C 271.995 123.956 276.515 166.663 280.592 202.98C 282.63 221.139 284.559 237.706 285.977 249.732C 286.686 255.745 287.268 260.623 287.673 263.998C 287.875 265.685 288.033 266.997 288.141 267.887C 288.194 268.332 288.235 268.671 288.263 268.9C 288.277 269.014 288.287 269.1 288.294 269.158C 288.298 269.187 288.301 269.209 288.302 269.223C 288.303 269.23 288.304 269.236 288.304 269.24C 288.305 269.241 288.305 269.243 288.305 269.244C 288.305 269.245 288.305 269.245 289.298 269.125ZM 272.226 98.312C 271.337 85.4738 268.636 76.8616 264.995 71.1959C 261.335 65.4993 256.75 62.8246 252.243 61.8431C 247.809 60.8954 243.423 61.5874 240.286 62.5021C 238.703 62.9661 237.368 63.4975 236.462 63.9002C 236.002 64.1049 235.632 64.2852 235.388 64.4088C 235.262 64.4722 235.162 64.525 235.098 64.5594C 235.064 64.5774 235.036 64.5924 235.019 64.6017C 235.01 64.6068 235.002 64.6112 234.998 64.6138C 234.995 64.6153 234.992 64.6167 234.991 64.6175C 234.99 64.6179 234.989 64.6184 234.989 64.6187C 234.988 64.6191 234.987 64.6195 235.477 65.4915C 235.966 66.3636 235.966 66.3638 235.966 66.364C 235.966 66.3639 235.965 66.364 235.966 66.3639C 235.966 66.3636 235.967 66.3634 235.968 66.3627C 235.971 66.3609 235.975 66.3589 235.981 66.3555C 235.995 66.3478 236.013 66.3377 236.041 66.323C 236.099 66.292 236.18 66.2495 236.292 66.1929C 236.521 66.0764 236.846 65.9179 237.275 65.7276C 238.145 65.3404 239.355 64.857 240.848 64.4218C 243.864 63.5383 247.754 62.8947 251.817 63.7973C 255.807 64.6662 259.94 67.0279 263.313 72.2771C 266.706 77.5572 269.355 85.8002 270.23 98.45L 272.226 98.312ZM 236.431 65.7915L 253.812 10.5232L 251.904 9.92319L 234.523 65.1915L 236.431 65.7915ZM 252.858 10.2232C 252.921 11.2212 252.922 11.2211 252.922 11.2211C 252.923 11.2211 252.923 11.221 252.924 11.221C 252.926 11.2209 252.929 11.2207 252.932 11.2205C 252.94 11.22 252.95 11.2193 252.965 11.2184C 252.993 11.2166 253.036 11.2138 253.092 11.2102C 253.203 11.2029 253.37 11.1919 253.587 11.1774C 254.022 11.1485 254.661 11.1051 255.481 11.0476C 257.118 10.9327 259.478 10.7612 262.359 10.5352C 268.119 10.0834 275.978 9.41263 284.346 8.53933C 292.714 7.66605 301.613 6.58737 309.441 5.32183C 317.274 4.05483 324.122 2.57914 328.303 0.92996L 327.567 -0.92994C 323.543 0.665049 316.904 2.08935 309.122 3.34748C 301.333 4.60706 292.49 5.67865 284.139 6.55013C 275.789 7.42157 267.956 8.09005 262.203 8.5413C 259.327 8.76684 256.976 8.93778 255.341 9.05248C 254.524 9.1098 253.887 9.15297 253.454 9.18188C 253.238 9.19631 253.073 9.20714 252.962 9.21439C 252.906 9.21801 252.864 9.22071 252.836 9.22252C 252.822 9.22342 252.812 9.22409 252.805 9.22455C 252.801 9.22477 252.799 9.22493 252.797 9.22505C 252.796 9.2251 252.795 9.22514 252.795 9.22517C 252.794 9.22519 252.794 9.22521 252.858 10.2232ZM 327.07 -0.501173C 318.961 13.4996 312.719 39.2533 308.087 70.1807C 303.45 101.148 300.403 137.491 298.762 172.758C 297.121 208.025 296.882 242.271 297.858 269.05C 298.346 282.444 299.14 294.003 300.214 302.884C 300.751 307.331 301.365 311.143 302.043 314.169C 302.72 317.185 303.486 319.544 304.372 321.051L 306.096 320.036C 305.375 318.812 304.663 316.708 303.995 313.731C 303.329 310.765 302.732 307.052 302.199 302.644C 301.131 293.815 300.343 282.339 299.857 268.977C 298.882 242.241 299.12 208.079 300.76 172.851C 302.399 137.621 305.437 101.379 310.065 70.4769C 314.699 39.5348 320.904 14.1346 328.8 0.501193L 327.07 -0.501173ZM 304.372 321.051C 304.78 321.745 305.073 322.212 305.227 322.415C 305.247 322.44 305.358 322.594 305.522 322.708C 305.583 322.748 305.748 322.827 305.856 322.861C 306.04 322.89 306.467 322.825 306.689 322.706C 306.857 322.556 307.047 322.241 307.089 322.101C 307.105 322.012 307.114 321.867 307.111 321.808C 307.1 321.634 307.043 321.478 307.03 321.438C 307.006 321.37 306.969 321.277 306.931 321.186C 306.653 320.521 305.865 318.909 304.643 316.511C 302.204 311.724 297.979 303.679 292.449 293.39C 281.391 272.815 265.094 243.234 247.369 212.699C 229.645 182.164 210.475 150.647 193.682 126.219C 185.282 114 177.451 103.52 170.698 95.8313C 167.315 91.9805 164.164 88.7908 161.358 86.443C 158.553 84.0973 155.975 82.4879 153.705 81.8786L 153.187 83.8103C 155.032 84.3056 157.341 85.6904 160.075 87.9773C 162.81 90.2622 165.852 93.3437 169.196 97.1512C 175.897 104.779 183.657 115.165 192.034 127.352C 208.796 151.734 227.925 183.186 245.64 213.703C 263.353 244.219 279.634 273.771 290.688 294.337C 296.213 304.617 300.428 312.643 302.861 317.419C 304.075 319.803 304.831 321.346 305.086 321.957C 305.115 322.026 305.129 322.063 305.14 322.095C 305.162 322.156 305.124 322.07 305.115 321.937C 305.114 321.887 305.122 321.75 305.136 321.668C 305.177 321.534 305.365 321.224 305.529 321.076C 305.747 320.959 306.17 320.895 306.348 320.923C 306.451 320.955 306.61 321.031 306.663 321.066C 306.797 321.158 306.862 321.261 306.818 321.203C 306.718 321.074 306.49 320.708 306.096 320.036L 304.372 321.051ZM 152.919 81.9949C 132.334 94.777 120.034 106.521 112.263 120.171C 104.538 133.766 101.32 149.225 98.7754 169.267L 100.759 169.519C 103.293 149.554 106.409 134.472 114.001 121.16C 121.547 107.905 133.548 96.3774 153.974 83.694L 152.919 81.9949ZM 100.549 170.016C 113.87 153.318 127.583 144.433 140.603 141.154C 153.674 137.839 165.989 140.131 176.848 146.021C 198.526 157.753 213.621 183.742 213.621 207.415L 215.621 207.415C 215.621 183.013 200.128 156.346 177.8 144.262C 166.655 138.245 153.611 135.84 140.115 139.215C 126.567 142.627 112.505 151.822 98.9857 168.769L 100.549 170.016ZM 213.621 207.415C 213.621 254.89 176.515 296.974 112.436 296.974L 112.436 298.974C 177.526 298.974 215.621 256.087 215.621 207.415L 213.621 207.415ZM 112.436 296.974C 80.5317 296.974 56.2481 281.144 40.5112 255.369C 24.7514 229.555 17.5635 193.749 20.031 153.928L 18.0348 153.804C 15.5501 193.902 22.771 230.15 38.8042 256.411C 54.8605 282.709 79.7543 298.974 112.436 298.974L 112.436 296.974ZM 20.031 153.928C 22.507 113.969 21.0226 92.7639 17.2129 80.6034C 15.2965 74.4865 12.7808 70.6177 9.85967 67.8046C 6.96932 65.0351 3.73496 63.3253 0.491384 61.4952L -0.491381 63.237C 2.7785 65.0818 5.799 66.6569 8.47236 69.2453C 11.115 71.7901 13.4718 75.352 15.3043 81.2014C 18.9924 92.9735 20.5109 113.844 18.0348 153.804L 20.031 153.928ZM 1 62.3661C 0.984983 46.0278 5.6729 33.1039 10.4011 24.1385C 12.7521 19.6745 15.0862 16.2609 16.8558 13.9274C 17.7343 12.7683 18.457 11.899 18.9707 11.3065C 19.2244 11.0137 19.4191 10.798 19.5552 10.6499C 19.6218 10.5775 19.6705 10.5255 19.7049 10.4891C 19.7214 10.4717 19.7327 10.4598 19.7411 10.4511C 19.7449 10.4471 19.7472 10.4447 19.7491 10.4427C 19.7499 10.4419 19.7502 10.4416 19.7505 10.4412C 19.7506 10.4411 19.7506 10.4412 19.7506 10.4412C 19.7505 10.4413 19.7503 10.4415 19.0329 9.74485C 18.3155 9.04819 18.3151 9.04856 18.3147 9.049C 18.3144 9.04925 18.3139 9.04977 18.3135 9.05027C 18.3127 9.05106 18.3112 9.05256 18.3097 9.05415C 18.307 9.05694 18.3024 9.06172 18.2971 9.0673C 18.2871 9.07765 18.2712 9.0944 18.2516 9.11509C 18.214 9.15484 18.1559 9.21696 18.083 9.29618C 17.9404 9.45131 17.7261 9.68888 17.4594 9.99652C 16.9322 10.6048 16.168 11.5247 15.2621 12.719C 13.4631 15.0923 11.039 18.6424 8.63179 23.2059C 3.84353 32.2956 -0.98498 45.6824 -0.999999 62.3661L 1 62.3661Z"/>
<path id="path4_fill" fill-rule="evenodd" d="M -6.08203e-06 33.0963C 72.4917 44.8772 112.342 39.6833 127.331 95.4106C 198.397 -22.1009 204.261 18.8236 313.04 4.75391e-06C 280.017 112.809 205.612 -1.97803 127.331 112.809C 88.7091 54.2534 32.5156 107.085 -6.08203e-06 33.0963Z"/>
<path id="path5_stroke" d="M -6.08203e-06 33.0963L 0.160403 32.1093L -1.6558 31.8141L -0.915501 33.4987L -6.08203e-06 33.0963ZM 127.331 95.4106L 126.365 95.6703L 126.974 97.9333L 128.186 95.9281L 127.331 95.4106ZM 313.04 4.75391e-06L 314 0.280949L 314.451 -1.25893L 312.87 -0.985351L 313.04 4.75391e-06ZM 127.331 112.809L 126.496 113.359L 127.317 114.604L 128.157 113.372L 127.331 112.809ZM -0.160415 34.0834C 17.9845 37.0319 34.0763 38.9174 48.2274 40.9561C 62.3747 42.994 74.5294 45.1716 84.9056 48.7199C 95.2661 52.255 103.707 57.0698 110.572 64.5002C 117.465 71.9312 122.652 81.8427 126.365 95.6703L 128.296 95.1508C 124.515 81.1148 119.099 70.7778 112.04 63.1413C 104.952 55.504 96.0892 50.4322 85.5522 46.8273C 75.0307 43.2355 62.6939 41.0197 48.5126 38.9766C 34.3352 36.9343 18.2613 35.0512 0.160403 32.1093L -0.160415 34.0834ZM 128.186 95.9281C 163.734 37.149 182.79 18.3504 206.317 11.6592C 218.167 8.28061 231.199 7.97007 248.164 7.32332C 265.125 6.67663 285.954 5.69995 313.211 0.985361L 312.87 -0.985351C 285.737 3.71183 265.04 4.67843 248.087 5.32477C 231.137 5.97105 217.866 6.30329 205.769 9.73548C 181.403 16.6658 161.994 36.1607 126.475 94.8931L 128.186 95.9281ZM 312.081 -0.28094C 303.862 27.7942 293.136 41.4777 280.627 48.1947C 268.051 54.9472 253.487 54.7868 237.165 54.6627C 220.906 54.539 203.047 54.4938 184.369 61.6876C 165.644 68.9178 146.165 83.416 126.505 112.245L 128.157 113.372C 147.637 84.8081 166.814 70.6097 185.089 63.5533C 203.41 56.4606 220.895 56.539 237.15 56.6626C 253.342 56.7857 268.463 56.9962 281.573 49.9567C 294.749 42.8816 305.707 28.6102 314 0.280949L 312.081 -0.28094ZM 128.166 112.258C 118.395 97.476 107.4 89.6145 96.0824 85.1255C 84.7443 80.6464 72.9694 79.4277 61.5205 77.7505C 50.0719 76.0739 38.986 73.9647 28.7023 67.6771C 18.4681 61.4385 8.98034 51.0454 0.915488 32.694L -0.915501 33.4987C 7.27743 52.1415 17.0072 62.8902 27.6612 69.3848C 38.2657 75.8305 49.7387 78.0459 61.2306 79.7294C 72.7223 81.4124 84.2695 82.5892 95.3462 86.9851C 106.444 91.3711 116.955 98.8639 126.496 113.359L 128.166 112.258Z"/>
<path id="path6_fill" fill-rule="evenodd" d="M 5.46258 22.3958C 30.9711 -14.3744 68.0106 -3.81342 59.8083 39.0852C 51.606 81.9838 -20.0459 59.166 5.46258 22.3958Z"/>
<path id="path7_stroke" d="M 6.28423 22.9658C 18.9264 4.74227 34.1705 -1.40369 44.9913 1.82298C 55.6906 5.01343 62.8844 17.6722 58.8261 38.8974L 60.7905 39.273C 64.9345 17.5995 57.7098 3.52853 45.5628 -0.0936271C 33.5372 -3.67957 17.5073 3.27908 4.64094 21.8258L 6.28423 22.9658ZM 58.8261 38.8974C 56.8365 49.3034 51.0333 55.6476 43.8634 58.8322C 36.6513 62.0356 27.9786 62.0719 20.2931 59.6621C 12.5997 57.2498 6.04214 52.4355 2.93697 46.108C -0.135799 39.8466 0.0782458 31.9116 6.28423 22.9658L 4.64094 21.8258C -1.90734 31.2651 -2.3025 39.9712 1.14152 46.9891C 4.55314 53.941 11.6383 59.0444 19.6947 61.5705C 27.7589 64.099 36.9428 64.0945 44.6752 60.66C 52.4499 57.2068 58.679 50.3163 60.7905 39.273L 58.8261 38.8974Z"/>
</defs>
</svg>
