<?xml version="1.0" encoding="UTF-8" standalone="no"?>
<svg width="497px" height="497px" viewBox="0 0 497 497" version="1.1" xmlns="http://www.w3.org/2000/svg" xmlns:xlink="http://www.w3.org/1999/xlink" xmlns:sketch="http://www.bohemiancoding.com/sketch/ns">
    <!-- Generator: Sketch 3.3.1 (12002) - http://www.bohemiancoding.com/sketch -->
    <title>Group</title>
    <desc>Created with Sketch.</desc>
    <defs></defs>
    <g id="Page-1" stroke="none" stroke-width="1" fill="none" fill-rule="evenodd" sketch:type="MSPage">
        <g id="Group" sketch:type="MSLayerGroup" transform="translate(-13.000000, 1.000000)" stroke="#979797">
            <circle id="Oval-1" fill="#877070" sketch:type="MSShapeGroup" cx="261.5" cy="247.5" r="247.5"></circle>
            <path d="M209.924877,243.614524 C158.317957,254.308671 97.9010898,46.6486216 272.429651,46.6486216 C446.988767,46.6486216 466.615079,228.876969 446.988756,291.31044 C446.988763,213.630167 343.479551,110.05985 209.924877,243.614524 Z" id="Path-1" fill="#D8D8D8" sketch:type="MSShapeGroup"></path>
            <path d="M83.3947835,313.797924 C31.7878629,324.492071 -28.6290039,116.832022 145.899557,116.832022 C320.458674,116.832022 340.084986,299.06037 320.458662,361.49384 C320.45867,283.813567 216.949457,180.24325 83.3947835,313.797924 Z" id="Path-1-Copy" fill="#D99696" sketch:type="MSShapeGroup" transform="translate(178.224598, 239.162931) rotate(-118.000000) translate(-178.224598, -239.162931) "></path>
            <path d="M206.955737,396.740054 C143.031164,396.740054 96.3877347,195.051608 270.916296,195.051608 C445.475412,195.051608 471.889932,376.170109 452.263609,438.603579 C452.263616,360.923306 340.510411,263.18538 206.955737,396.740054 Z" id="Path-1-Copy-2" fill="#FFFFFF" sketch:type="MSShapeGroup" transform="translate(303.594446, 316.827594) rotate(-235.000000) translate(-303.594446, -316.827594) "></path>
        </g>
    </g>
</svg>