<svg width="905" height="905" viewBox="0 0 905 905" version="1.1" xmlns="http://www.w3.org/2000/svg" xmlns:xlink="http://www.w3.org/1999/xlink">
<g id="Canvas" transform="translate(344 545)">
<g id="Vector" filter="url(#filter0_d)">
<use xlink:href="#path0_fill" transform="translate(-304 -513)" fill="#F9FAFC"/>
</g>
</g>
<defs>
<filter id="filter0_d" filterUnits="userSpaceOnUse" x="-344" y="-545" width="905" height="905" color-interpolation-filters="sRGB">
<feFlood flood-opacity="0" result="BackgroundImageFix"/>
<feColorMatrix in="SourceAlpha" type="matrix" values="0 0 0 0 0 0 0 0 0 0 0 0 0 0 0 0 0 0 255 0"/>
<feOffset dx="0" dy="8"/>
<feGaussianBlur stdDeviation="20"/>
<feColorMatrix type="matrix" values="0 0 0 0 0.337255 0 0 0 0 0.8 0 0 0 0 0.94902 0 0 0 0.71 0"/>
<feBlend mode="normal" in2="BackgroundImageFix" result="effect1_dropShadow"/>
<feBlend mode="normal" in="SourceGraphic" in2="effect1_dropShadow" result="shape"/>
</filter>
<path id="path0_fill" fill-rule="evenodd" d="M 412.242 824.484C 639.916 824.484 824.484 639.916 824.484 412.242C 824.484 184.567 639.916 -3.11328e-06 412.242 -3.11328e-06C 184.567 -3.11328e-06 -2.11221e-06 184.567 -2.11221e-06 412.242C -2.11221e-06 639.916 184.567 824.484 412.242 824.484ZM 533.794 328.095C 571.27 376.128 718.126 442.41 683.7 603.661C 823.74 375.796 683.7 226.75 683.7 226.75C 594.284 137.001 442.041 210.496 533.794 328.095ZM 594.04 645.397C 557.093 738.093 342.99 831.513 171.385 634.708C 24.4719 466.221 82.5905 244.959 206.435 151.261C 410.162 -2.87529 585.076 125.415 585.076 125.415C 431.123 82.6627 359.825 262.662 477.01 372.346C 538.567 429.962 655.284 491.741 594.04 645.397ZM 442.847 660.213C 489.239 660.213 526.846 622.606 526.846 576.214C 526.846 529.823 489.239 492.215 442.847 492.215C 396.456 492.215 358.848 529.823 358.848 576.214C 358.848 622.606 396.456 660.213 442.847 660.213Z"/>
</defs>
</svg>
