<?xml version="1.0" encoding="UTF-8"?>
<svg width="640px" height="255px" viewBox="0 0 640 255" version="1.1" xmlns="http://www.w3.org/2000/svg" xmlns:xlink="http://www.w3.org/1999/xlink">
    <!-- Generator: Sketch 39.1 (31720) - http://www.bohemiancoding.com/sketch -->
    <title>higher</title>
    <desc>Created with Sketch.</desc>
    <defs>
        <rect id="path-1" x="0" y="0" width="111" height="57"></rect>
        <mask id="mask-2" maskContentUnits="userSpaceOnUse" maskUnits="objectBoundingBox" x="0" y="0" width="111" height="57" fill="white">
            <use xlink:href="#path-1"></use>
        </mask>
        <rect id="path-3" x="0" y="0" width="111" height="57"></rect>
        <mask id="mask-4" maskContentUnits="userSpaceOnUse" maskUnits="objectBoundingBox" x="0" y="0" width="111" height="57" fill="white">
            <use xlink:href="#path-3"></use>
        </mask>
        <rect id="path-5" x="0" y="0" width="111" height="57"></rect>
        <mask id="mask-6" maskContentUnits="userSpaceOnUse" maskUnits="objectBoundingBox" x="0" y="0" width="111" height="57" fill="white">
            <use xlink:href="#path-5"></use>
        </mask>
        <rect id="path-7" x="0" y="0" width="111" height="57"></rect>
        <mask id="mask-8" maskContentUnits="userSpaceOnUse" maskUnits="objectBoundingBox" x="0" y="0" width="111" height="57" fill="white">
            <use xlink:href="#path-7"></use>
        </mask>
        <rect id="path-9" x="421" y="0" width="218.051449" height="255"></rect>
        <mask id="mask-10" maskContentUnits="userSpaceOnUse" maskUnits="objectBoundingBox" x="0" y="0" width="218.051449" height="255" fill="white">
            <use xlink:href="#path-9"></use>
        </mask>
        <rect id="path-11" x="0" y="0" width="203" height="57"></rect>
        <mask id="mask-12" maskContentUnits="userSpaceOnUse" maskUnits="objectBoundingBox" x="0" y="0" width="203" height="57" fill="white">
            <use xlink:href="#path-11"></use>
        </mask>
        <rect id="path-13" x="0" y="0" width="126" height="57"></rect>
        <mask id="mask-14" maskContentUnits="userSpaceOnUse" maskUnits="objectBoundingBox" x="0" y="0" width="126" height="57" fill="white">
            <use xlink:href="#path-13"></use>
        </mask>
    </defs>
    <g id="Page-1" stroke="none" stroke-width="1" fill="none" fill-rule="evenodd">
        <g id="higher">
            <g id="Om" transform="translate(445.000000, 27.000000)">
                <text id="Procs" font-family="Geometria-Light, Geometria" font-size="24" font-weight="300" fill="#000000">
                    <tspan x="23" y="36">Procs</tspan>
                </text>
                <use id="Rectangle-4" stroke="#979797" mask="url(#mask-2)" stroke-width="2" xlink:href="#path-1"></use>
            </g>
            <g id="Om" transform="translate(445.000000, 168.000000)">
                <text id="CPS" font-family="Geometria-Light, Geometria" font-size="24" font-weight="300" fill="#000000">
                    <tspan x="32" y="36">CPS</tspan>
                </text>
                <use id="Rectangle-4" stroke="#979797" mask="url(#mask-4)" stroke-width="2" xlink:href="#path-3"></use>
            </g>
            <text id="OE" font-family="Geometria-Light, Geometria" font-size="24" font-weight="300" fill="#000000">
                <tspan x="579" y="46">OE</tspan>
            </text>
            <g id="Om" transform="translate(147.000000, 26.000000)">
                <text id="HTS" font-family="Geometria-Light, Geometria" font-size="24" font-weight="300" fill="#000000">
                    <tspan x="24" y="35"> HTS</tspan>
                </text>
                <use id="Rectangle-4" stroke="#979797" mask="url(#mask-6)" stroke-width="2" xlink:href="#path-5"></use>
            </g>
            <g id="Om" transform="translate(287.000000, 27.000000)">
                <text id="PTS" font-family="Geometria-Light, Geometria" font-size="24" font-weight="300" fill="#000000">
                    <tspan x="32" y="35">PTS</tspan>
                </text>
                <use id="Rectangle-4" stroke="#979797" mask="url(#mask-8)" stroke-width="2" xlink:href="#path-7"></use>
            </g>
            <g id="Group" transform="translate(342.000000, 89.000000) rotate(270.000000) translate(-342.000000, -89.000000) translate(336.000000, 80.000000)" stroke="#979797" stroke-linecap="square">
                <path d="M1.40931373,0.5 L10.9044118,9.5" id="Line"></path>
                <path d="M0.678921569,17.5 L11.6348039,9.5" id="Line"></path>
            </g>
            <g id="Group" transform="translate(181.000000, 88.000000) rotate(284.000000) translate(-181.000000, -88.000000) translate(175.000000, 79.000000)" stroke="#979797" stroke-linecap="square">
                <path d="M1.40931373,0.5 L10.9044118,9.5" id="Line"></path>
                <path d="M0.678921569,17.5 L11.6348039,9.5" id="Line"></path>
            </g>
            <g id="Group" transform="translate(203.000000, 87.000000) rotate(270.000000) translate(-203.000000, -87.000000) translate(197.000000, 78.000000)" stroke="#979797" stroke-linecap="square">
                <path d="M1.40931373,0.5 L10.9044118,9.5" id="Line"></path>
                <path d="M0.678921569,17.5 L11.6348039,9.5" id="Line"></path>
            </g>
            <path d="M203.5,168.5 L203.5,81.5" id="Line" stroke="#979797" stroke-linecap="square"></path>
            <path d="M380.953125,83.3632813 C380.453125,82.8632813 421.022226,170.671871 462.904299,83.3632813" id="Line" stroke="#979797" stroke-linecap="square"></path>
            <g id="Group" transform="translate(502.000000, 163.000000) rotate(90.000000) translate(-502.000000, -163.000000) translate(496.000000, 154.000000)" stroke="#979797" stroke-linecap="square">
                <path d="M1.40931373,0.5 L10.9044118,9.5" id="Line"></path>
                <path d="M0.678921569,17.5 L11.6348039,9.5" id="Line"></path>
            </g>
            <g id="Group" transform="translate(457.000000, 90.500000) rotate(270.000000) translate(-457.000000, -90.500000) translate(448.500000, 83.500000)" stroke="#979797" stroke-linecap="square">
                <path d="M7.37255859,0.794921875 L15.6855469,12.6723633" id="Line"></path>
                <path d="M0.5,12.828125 L15.6528319,12.828125" id="Line"></path>
            </g>
            <use id="Rectangle" stroke="#979797" mask="url(#mask-10)" stroke-width="4" xlink:href="#path-9"></use>
            <path d="M342.042971,86.5234375 C331.773437,183.304687 229.761719,110.765625 221.175781,81.5820312" id="Line" stroke="#979797" stroke-linecap="square"></path>
            <path d="M363.5,235.5 L365,237" id="Line" stroke="#979797" stroke-linecap="square"></path>
            <g id="Group-2" transform="translate(397.000000, 101.000000)">
                <path d="M23,46 C35.7025492,46 46,35.7025492 46,23 C46,10.2974508 35.7025492,0 23,0 C10.2974508,0 0,10.2974508 0,23 C0,35.7025492 10.2974508,46 23,46 Z" id="Oval" stroke="#979797" fill="#FFFFFF"></path>
                <text id="4" font-family="Geometria-Light, Geometria" font-size="24" font-weight="300" fill="#000000">
                    <tspan x="15" y="32">4</tspan>
                </text>
            </g>
            <g id="Om" transform="translate(147.000000, 168.000000)">
                <text id="Applications" font-family="Geometria-Light, Geometria" font-size="24" font-weight="300" fill="#000000">
                    <tspan x="30" y="35">Applications</tspan>
                </text>
                <use id="Rectangle-4" stroke="#979797" mask="url(#mask-12)" stroke-width="2" xlink:href="#path-11"></use>
            </g>
            <g id="Om" transform="translate(0.000000, 25.000000)">
                <text id="Library" font-family="Geometria-Light, Geometria" font-size="24" font-weight="300" fill="#000000">
                    <tspan x="25" y="34">Library</tspan>
                </text>
                <use id="Rectangle-4" stroke="#979797" mask="url(#mask-14)" stroke-width="2" xlink:href="#path-13"></use>
            </g>
            <path d="M501.5,84.5 L501.5,168.5" id="Line" stroke="#979797" stroke-linecap="square"></path>
            <g id="Group-2" transform="translate(479.000000, 101.000000)">
                <path d="M23,46 C35.7025492,46 46,35.7025492 46,23 C46,10.2974508 35.7025492,0 23,0 C10.2974508,0 0,10.2974508 0,23 C0,35.7025492 10.2974508,46 23,46 Z" id="Oval" stroke="#979797" fill="#FFFFFF"></path>
                <text id="5" font-family="Geometria-Light, Geometria" font-size="24" font-weight="300" fill="#000000">
                    <tspan x="15" y="32">5</tspan>
                </text>
            </g>
            <g id="Group-2" transform="translate(244.000000, 99.977615)">
                <path d="M23,46 C35.7025492,46 46,35.7025492 46,23 C46,10.2974508 35.7025492,0 23,0 C10.2974508,0 0,10.2974508 0,23 C0,35.7025492 10.2974508,46 23,46 Z" id="Oval" stroke="#979797" fill="#FFFFFF"></path>
                <text id="3" font-family="Geometria-Light, Geometria" font-size="24" font-weight="300" fill="#000000">
                    <tspan x="17" y="31">3</tspan>
                </text>
            </g>
            <path d="M182.669922,81.5820312 C162.556641,172.677734 69.7617187,110.765625 61.1757812,81.5820312" id="Line" stroke="#979797" stroke-linecap="square"></path>
            <g id="Group-2" transform="translate(84.000000, 99.977615)">
                <path d="M23,46 C35.7025492,46 46,35.7025492 46,23 C46,10.2974508 35.7025492,0 23,0 C10.2974508,0 0,10.2974508 0,23 C0,35.7025492 10.2974508,46 23,46 Z" id="Oval" stroke="#979797" fill="#FFFFFF"></path>
                <text id="1" font-family="Geometria-Light, Geometria" font-size="24" font-weight="300" fill="#000000">
                    <tspan x="18" y="32">1</tspan>
                </text>
            </g>
            <g id="Group-2" transform="translate(180.000000, 99.977615)">
                <path d="M23,46 C35.7025492,46 46,35.7025492 46,23 C46,10.2974508 35.7025492,0 23,0 C10.2974508,0 0,10.2974508 0,23 C0,35.7025492 10.2974508,46 23,46 Z" id="Oval" stroke="#979797" fill="#FFFFFF"></path>
                <text id="2" font-family="Geometria-Light, Geometria" font-size="24" font-weight="300" fill="#000000">
                    <tspan x="16" y="31">2</tspan>
                </text>
            </g>
        </g>
    </g>
</svg>