<?xml version="1.0" encoding="UTF-8"?>
<svg width="467px" height="230px" viewBox="0 0 467 230" version="1.1" xmlns="http://www.w3.org/2000/svg" xmlns:xlink="http://www.w3.org/1999/xlink">
    <!-- Generator: Sketch 39.1 (31720) - http://www.bohemiancoding.com/sketch -->
    <title>minimal</title>
    <desc>Created with Sketch.</desc>
    <defs>
        <rect id="path-1" x="0" y="0" width="111" height="57"></rect>
        <mask id="mask-2" maskContentUnits="userSpaceOnUse" maskUnits="objectBoundingBox" x="0" y="0" width="111" height="57" fill="white">
            <use xlink:href="#path-1"></use>
        </mask>
        <rect id="path-3" x="0" y="0" width="111" height="57"></rect>
        <mask id="mask-4" maskContentUnits="userSpaceOnUse" maskUnits="objectBoundingBox" x="0" y="0" width="111" height="57" fill="white">
            <use xlink:href="#path-3"></use>
        </mask>
        <rect id="path-5" x="0" y="0" width="206" height="57"></rect>
        <mask id="mask-6" maskContentUnits="userSpaceOnUse" maskUnits="objectBoundingBox" x="0" y="0" width="206" height="57" fill="white">
            <use xlink:href="#path-5"></use>
        </mask>
        <rect id="path-7" x="0" y="0" width="144" height="57"></rect>
        <mask id="mask-8" maskContentUnits="userSpaceOnUse" maskUnits="objectBoundingBox" x="0" y="0" width="144" height="57" fill="white">
            <use xlink:href="#path-7"></use>
        </mask>
        <rect id="path-9" x="300" y="7.10542736e-14" width="167" height="230"></rect>
        <mask id="mask-10" maskContentUnits="userSpaceOnUse" maskUnits="objectBoundingBox" x="0" y="0" width="167" height="230" fill="white">
            <use xlink:href="#path-9"></use>
        </mask>
    </defs>
    <g id="Page-1" stroke="none" stroke-width="1" fill="none" fill-rule="evenodd">
        <g id="minimal">
            <g id="Om" transform="translate(326.000000, 28.000000)">
                <text id="CPS" font-family="Geometria-Light, Geometria" font-size="24" font-weight="300" fill="#000000">
                    <tspan x="32" y="36">CPS</tspan>
                </text>
                <use id="Rectangle-4" stroke="#979797" mask="url(#mask-2)" stroke-width="2" xlink:href="#path-1"></use>
            </g>
            <path d="M262.004574,86.3632813 C261.504574,85.8632813 302.073675,173.671871 343.955749,86.3632813" id="Line" stroke="#979797" stroke-linecap="square"></path>
            <g id="Group" transform="translate(338.051449, 93.500000) rotate(270.000000) translate(-338.051449, -93.500000) translate(329.551449, 86.500000)" stroke="#979797" stroke-linecap="square">
                <path d="M7.37255859,0.794921875 L15.6855469,12.6723633" id="Line"></path>
                <path d="M0.5,12.828125 L15.6528319,12.828125" id="Line"></path>
            </g>
            <text id="OE" font-family="Geometria-Light, Geometria" font-size="24" font-weight="300" fill="#000000">
                <tspan x="409" y="207">OE</tspan>
            </text>
            <g id="Om" transform="translate(165.000000, 30.000000)">
                <text id="PTS" font-family="Geometria-Light, Geometria" font-size="24" font-weight="300" fill="#000000">
                    <tspan x="29" y="34">PTS</tspan>
                </text>
                <use id="Rectangle-4" stroke="#979797" mask="url(#mask-4)" stroke-width="2" xlink:href="#path-3"></use>
            </g>
            <g id="Group" transform="translate(199.000000, 93.000000) rotate(284.000000) translate(-199.000000, -93.000000) translate(193.000000, 84.000000)" stroke="#979797" stroke-linecap="square">
                <path d="M1.40931373,0.5 L10.9044118,9.5" id="Line"></path>
                <path d="M0.678921569,17.5 L11.6348039,9.5" id="Line"></path>
            </g>
            <g id="Group" transform="translate(231.000000, 92.000000) rotate(270.000000) translate(-231.000000, -92.000000) translate(225.000000, 83.000000)" stroke="#979797" stroke-linecap="square">
                <path d="M1.40931373,0.5 L10.9044118,9.5" id="Line"></path>
                <path d="M0.678921569,17.5 L11.6348039,9.5" id="Line"></path>
            </g>
            <path d="M231.5,173.5 L231.5,86.5" id="Line" stroke="#979797" stroke-linecap="square"></path>
            <g id="Om" transform="translate(70.000000, 173.000000)">
                <text id="Applications" font-family="Geometria-Light, Geometria" font-size="24" font-weight="300" fill="#000000">
                    <tspan x="29" y="36">Applications</tspan>
                </text>
                <use id="Rectangle-4" stroke="#979797" mask="url(#mask-6)" stroke-width="2" xlink:href="#path-5"></use>
            </g>
            <g id="Om" transform="translate(0.000000, 30.000000)">
                <text id="Library" font-family="Geometria-Light, Geometria" font-size="24" font-weight="300" fill="#000000">
                    <tspan x="33" y="35">Library</tspan>
                </text>
                <use id="Rectangle-4" stroke="#979797" mask="url(#mask-8)" stroke-width="2" xlink:href="#path-7"></use>
            </g>
            <path d="M200.669922,86.5820312 C180.556641,177.677734 87.7617187,115.765625 79.1757812,86.5820312" id="Line" stroke="#979797" stroke-linecap="square"></path>
            <g id="Group-2" transform="translate(102.000000, 104.977615)">
                <path d="M23,46 C35.7025492,46 46,35.7025492 46,23 C46,10.2974508 35.7025492,0 23,0 C10.2974508,0 0,10.2974508 0,23 C0,35.7025492 10.2974508,46 23,46 Z" id="Oval" stroke="#979797" fill="#FFFFFF"></path>
                <text id="1" font-family="Geometria-Light, Geometria" font-size="24" font-weight="300" fill="#000000">
                    <tspan x="18" y="32">1</tspan>
                </text>
            </g>
            <g id="Group-2" transform="translate(208.000000, 104.977615)">
                <path d="M23,46 C35.7025492,46 46,35.7025492 46,23 C46,10.2974508 35.7025492,0 23,0 C10.2974508,0 0,10.2974508 0,23 C0,35.7025492 10.2974508,46 23,46 Z" id="Oval" stroke="#979797" fill="#FFFFFF"></path>
                <text id="2" font-family="Geometria-Light, Geometria" font-size="24" font-weight="300" fill="#000000">
                    <tspan x="16" y="31">2</tspan>
                </text>
            </g>
            <use id="Rectangle" stroke="#979797" mask="url(#mask-10)" stroke-width="4" xlink:href="#path-9"></use>
            <g id="Group-2" transform="translate(278.051449, 104.000000)">
                <path d="M23,46 C35.7025492,46 46,35.7025492 46,23 C46,10.2974508 35.7025492,0 23,0 C10.2974508,0 0,10.2974508 0,23 C0,35.7025492 10.2974508,46 23,46 Z" id="Oval" stroke="#979797" fill="#FFFFFF"></path>
                <text id="3" font-family="Geometria-Light, Geometria" font-size="24" font-weight="300" fill="#000000">
                    <tspan x="15" y="32">3</tspan>
                </text>
            </g>
        </g>
    </g>
</svg>