<?xml version="1.0" encoding="UTF-8" standalone="no"?>
<svg width="739px" height="739px" viewBox="0 0 739 739" version="1.1" xmlns="http://www.w3.org/2000/svg" xmlns:xlink="http://www.w3.org/1999/xlink" xmlns:sketch="http://www.bohemiancoding.com/sketch/ns">
    <!-- Generator: Sketch 3.3.1 (12002) - http://www.bohemiancoding.com/sketch -->
    <title>Om</title>
    <desc>Created with Sketch.</desc>
    <defs></defs>
    <g id="Page-1" stroke="none" stroke-width="1" fill="none" fill-rule="evenodd" sketch:type="MSPage">
        <g id="Om" sketch:type="MSLayerGroup" transform="translate(0.500000, 0.500000)" stroke="#979797">
            <circle id="Oval-1-Copy-2" fill="#D2D2D2" sketch:type="MSShapeGroup" cx="369" cy="369" r="368.5"></circle>
            <circle id="Oval-1" fill="#9B9B9B" sketch:type="MSShapeGroup" cx="369" cy="369" r="328.5"></circle>
            <circle id="Oval-1-Copy" fill="#FFFFFF" sketch:type="MSShapeGroup" cx="369.5" cy="369.5" r="284"></circle>
            <path d="M216.78366,283.148675 C216.78366,283.148675 275.139698,291.455084 288.874528,283.627021 C247.259525,357.841713 219.734919,408.291015 232.735971,480.818578 C245.737023,553.34614 292.414101,551.839995 297.518191,551.839988 C302.622281,551.839981 359.134304,550.114062 359.134295,499.613042 C359.134285,449.112023 306.808348,442.796563 287.426375,465.094578 C288.87453,422.731888 297.518194,367.534675 327.664341,335.149379 C319.841724,328.526878 288.874528,339.596701 288.874528,339.596701 L314.37883,283.526827 C314.37883,283.526827 424.868372,292.505505 438.157123,280.401419 C415.448926,328.985831 408.464553,321.172106 398.193918,338.332964 C377.7129,338.332963 487.048458,542.528413 487.048458,542.528413 C487.048458,542.528413 472.505494,422.760978 468.978861,371.784843 C465.452228,320.808708 433.227584,338.895343 433.227584,338.895343 L450.608653,283.627021 C450.608653,283.627021 509.275615,279.892174 525.685881,273.403829 C493.675902,328.672151 490.132249,572.098562 502.984598,593.947339 C515.836947,615.796116 384.116447,365.084771 351.196825,356.248305 C310.186299,381.713752 302.59643,402.790059 297.518194,442.796563 C351.196825,375.504947 412.371598,432.744833 412.371595,480.81858 C412.371593,528.892327 374.771337,571.377822 310.186297,571.377825 C245.601258,571.377828 211.831493,507.189006 216.78366,427.269721 C221.735826,347.350436 210.777705,343.119654 197.750792,335.769936 C197.750792,302.74792 216.78366,283.148675 216.78366,283.148675 Z" id="Path-1" fill="#9B9B9B" sketch:type="MSShapeGroup"></path>
            <path d="M183.255072,193.424046 C255.746766,205.204923 295.596835,200.010992 310.58586,255.73827 C381.652031,138.226831 387.515756,179.151244 496.295326,160.327693 C463.272265,273.136481 388.866938,158.34967 310.58586,273.136481 C271.964139,214.581146 215.770632,267.412495 183.255072,193.424046 Z" id="Path-2" fill="#9B9B9B" sketch:type="MSShapeGroup"></path>
            <path d="M283.434617,166.127503 C308.943143,129.357276 345.982677,139.918305 337.780358,182.816902 C329.578039,225.715498 257.926091,202.897729 283.434617,166.127503 Z" id="Path-3" fill="#9B9B9B" sketch:type="MSShapeGroup"></path>
        </g>
    </g>
</svg>