<?xml version="1.0" encoding="UTF-8" standalone="no"?>
<svg width="391px" height="390px" viewBox="0 0 391 390" version="1.1" xmlns="http://www.w3.org/2000/svg" xmlns:xlink="http://www.w3.org/1999/xlink" xmlns:sketch="http://www.bohemiancoding.com/sketch/ns">
    <!-- Generator: Sketch 3.3.1 (12002) - http://www.bohemiancoding.com/sketch -->
    <title>Stamp</title>
    <desc>Created with Sketch.</desc>
    <defs></defs>
    <g id="Page-1" stroke="none" stroke-width="1" fill="none" fill-rule="evenodd" sketch:type="MSPage">
        <g id="Stamp" sketch:type="MSLayerGroup" transform="translate(0.000000, 1.000000)" stroke="#979797">
            <path d="M0.750640797,28.862924 L15.6421286,368.380402 L40.1481772,388.189986 L368.742417,383.27189 L388.446462,354.301561 L390.208955,24.7363671 L371.549742,0.462503293 L20.1908396,1.06407296 L0.750640797,28.862924 Z" id="Path-4" fill="#D0011B" sketch:type="MSShapeGroup"></path>
            <path d="M76.8122655,70.1496002 L62.9656092,85.980381 L72.5801701,313.732547 L89.1286129,329.457789 L332.10999,324.993509 L345.249538,299.66426 L342.547751,73.3052025 L325.777678,56.6406673 L76.8122655,70.1496002 Z" id="Path-5" fill="#FFFFFF" sketch:type="MSShapeGroup"></path>
            <path d="M87.819935,99.5315293 L87.819935,231.296396 L146.362164,231.296396 L146.362162,85.5371191 L87.819935,99.5315293 Z" id="Path-6" fill="#D0011B" sketch:type="MSShapeGroup"></path>
            <path d="M260.322676,84.7139185 L317.92561,79.194253 L317.925612,224.045892 L260.322676,224.045892 L260.322676,84.7139185 Z" id="Path-7" fill="#D0011B" sketch:type="MSShapeGroup"></path>
            <path d="M176.493415,176.395247 L176.715046,295.537703 L232.777118,297.416289 L235.594997,167.572225 L176.493415,176.395247 Z" id="Path-8" fill="#D0011B" sketch:type="MSShapeGroup"></path>
            <path d="M168.715225,97.2835585 L176.820584,127.678658 L206.023098,123.098285 L203.205219,83.8062871 L168.715225,97.2835585 Z" id="Path-9" fill="#D0011B" sketch:type="MSShapeGroup"></path>
            <path d="M98.4371127,267.02119 L106.542472,297.416289 L135.744986,292.835916 L132.927107,253.543918 L98.4371127,267.02119 Z" id="Path-9-Copy" fill="#D0011B" sketch:type="MSShapeGroup"></path>
            <path d="M270.470207,267.02119 L278.575567,297.416289 L307.778081,292.835916 L304.960202,253.543918 L270.470207,267.02119 Z" id="Path-9-Copy-2" fill="#D0011B" sketch:type="MSShapeGroup"></path>
        </g>
    </g>
</svg>