<?xml version="1.0" encoding="UTF-8" standalone="no"?>
<svg width="321px" height="321px" viewBox="0 0 321 321" version="1.1" xmlns="http://www.w3.org/2000/svg" xmlns:xlink="http://www.w3.org/1999/xlink" xmlns:sketch="http://www.bohemiancoding.com/sketch/ns">
    <!-- Generator: Sketch 3.3.1 (12002) - http://www.bohemiancoding.com/sketch -->
    <title>Synrc Neo</title>
    <desc>Created with Sketch.</desc>
    <defs></defs>
    <g id="Page-1" stroke="none" stroke-width="1" fill="none" fill-rule="evenodd" sketch:type="MSPage">
        <g id="Synrc-Neo" sketch:type="MSLayerGroup" transform="translate(1.000000, 1.000000)" stroke="#979797">
            <path d="M159.5,319 C247.589418,319 319,247.589418 319,159.5 C319,71.4105824 247.589418,0 159.5,0 C71.4105824,0 0,71.4105824 0,159.5 C0,247.589418 71.4105824,319 159.5,319 Z" id="Oval-1" fill="#4990E2" sketch:type="MSShapeGroup"></path>
            <path d="M126.738284,94.4179684 C126.738284,187.398437 254.843745,120.097656 254.843745,208.964843 C254.843745,297.832031 122.242187,321.378906 58.7070312,244.316406 C-4.8281249,167.253906 40.2304683,73.2343768 84.6367193,44.7617183 C129.04297,16.2890597 181.957637,18.6894188 219.068553,44.7617184 C219.068553,44.7617184 126.738284,34.4482157 126.738284,94.4179684 Z" id="Path-1" fill="#FFFFFF" sketch:type="MSShapeGroup"></path>
            <path d="M247.055284,62.2812909 C247.055284,62.2812909 181.839844,54.359375 195.519531,94.1679688 C209.199219,133.976563 287.707178,131.588413 280.539209,215.412628 C321.359526,116.826692 247.055284,62.2812909 247.055284,62.2812909 Z" id="Path-2" fill="#FFFFFF" sketch:type="MSShapeGroup"></path>
            <ellipse id="Oval-2" fill="#4990E2" sketch:type="MSShapeGroup" cx="190" cy="218.5" rx="31" ry="31.5"></ellipse>
        </g>
    </g>
</svg>