<?xml version="1.0" encoding="UTF-8" standalone="no"?>
<svg width="491px" height="175px" viewBox="0 0 491 175" version="1.1" xmlns="http://www.w3.org/2000/svg" xmlns:xlink="http://www.w3.org/1999/xlink" xmlns:sketch="http://www.bohemiancoding.com/sketch/ns">
    <!-- Generator: Sketch 3.3.1 (12002) - http://www.bohemiancoding.com/sketch -->
    <title>BPE</title>
    <desc>Created with Sketch.</desc>
    <defs></defs>
    <g id="Page-1" stroke="none" stroke-width="1" fill="none" fill-rule="evenodd" sketch:type="MSPage">
        <g id="BPE" sketch:type="MSLayerGroup">
            <path d="M131.667279,120.5 L48.4834559,120.5" id="Line-Copy-4" stroke="#979797" stroke-linecap="square" sketch:type="MSShapeGroup"></path>
            <rect id="Rectangle-1-Copy-6" stroke="#979797" stroke-width="2" sketch:type="MSShapeGroup" x="192.205882" y="67" width="45" height="49"></rect>
            <ellipse id="Oval-1-Copy-34" stroke="#979797" fill="#B8E986" sketch:type="MSShapeGroup" cx="126.9375" cy="120.5" rx="14.5" ry="14.5"></ellipse>
            <ellipse id="Oval-5-Copy-34" stroke="#979797" stroke-width="2" sketch:type="MSShapeGroup" cx="126.4375" cy="120" rx="36.5" ry="34"></ellipse>
            <rect id="Rectangle-1-Copy-8" stroke="#979797" stroke-width="2" sketch:type="MSShapeGroup" x="0.0477941176" y="67" width="179.871324" height="108"></rect>
            <text id="{[{f,s}],t}." sketch:type="MSTextLayer" font-family="Geometria" font-size="52" font-weight="260" fill="#000000">
                <tspan x="284.566176" y="119">{[{f,s}],t}.</tspan>
            </text>
            <path d="M46.8639706,142.311644 C59.1726109,142.311644 69.1507353,132.770096 69.1507353,121 C69.1507353,109.229904 59.1726109,99.6883562 46.8639706,99.6883562 C34.5553303,99.6883562 24.5772059,109.229904 24.5772059,121 C24.5772059,132.770096 34.5553303,142.311644 46.8639706,142.311644 Z" id="Oval-5-Copy-36" stroke="#979797" stroke-width="2" sketch:type="MSShapeGroup"></path>
            <ellipse id="Oval-1-Copy-16" stroke="#979797" fill="#D8D8D8" sketch:type="MSShapeGroup" cx="47.3639706" cy="120.5" rx="14.5" ry="14.5"></ellipse>
            <rect id="Rectangle-3-Copy-17" stroke="#979797" fill="#D8D8D8" sketch:type="MSShapeGroup" x="201.205882" y="77" width="29" height="29"></rect>
            <rect id="Rectangle-3-Copy-19" stroke="#979797" fill="#D8D8D8" sketch:type="MSShapeGroup" x="38" y="0" width="29" height="29"></rect>
            <path d="M50.5,28.5 L50.5,66.5" id="Line-Copy-2" stroke="#979797" stroke-linecap="square" sketch:type="MSShapeGroup"></path>
        </g>
    </g>
</svg>