<?xml version="1.0" encoding="UTF-8" standalone="no"?>
<svg width="643px" height="226px" viewBox="0 0 643 226" version="1.1" xmlns="http://www.w3.org/2000/svg" xmlns:xlink="http://www.w3.org/1999/xlink" xmlns:sketch="http://www.bohemiancoding.com/sketch/ns">
    <!-- Generator: Sketch 3.3.1 (12002) - http://www.bohemiancoding.com/sketch -->
    <title>MQ</title>
    <desc>Created with Sketch.</desc>
    <defs></defs>
    <g id="Page-1" stroke="none" stroke-width="1" fill="none" fill-rule="evenodd" sketch:type="MSPage">
        <g id="MQ" sketch:type="MSLayerGroup" transform="translate(0.000000, -11.000000)">
            <g id="Group" transform="translate(0.000000, 65.000000)" stroke="#979797" sketch:type="MSShapeGroup">
                <path d="M206,148.284561 C226.158393,148.284561 242.5,133.062243 242.5,114.284561 C242.5,95.5068799 226.158393,80.2845614 206,80.2845614 C185.841607,80.2845614 169.5,95.5068799 169.5,114.284561 C169.5,133.062243 185.841607,148.284561 206,148.284561 Z" id="Oval-5-Copy-42" stroke-width="2"></path>
                <rect id="Rectangle-37-Copy-2" stroke-width="2" x="0" y="64" width="355" height="108"></rect>
                <rect id="Rectangle-3-Copy-26" fill="#D8D8D8" x="62" y="0" width="29" height="29"></rect>
                <path d="M74.5,28.5 L74.5,66.5" id="Line-Copy-28" stroke-linecap="square"></path>
                <rect id="Rectangle-37-Copy-3" stroke-width="2" x="262" y="85" width="71" height="65"></rect>
                <path d="M203.5,114.5 L296.5,114.5" id="Line" stroke-linecap="square"></path>
                <path d="M46.5,116.5 L113.5,116.5" id="Line-Copy-27" stroke-linecap="square"></path>
                <circle id="Oval-1-Copy-19" fill="#4990E2" cx="206" cy="114.284561" r="14.5"></circle>
                <path d="M296.5,138.278119 C308.80864,138.278119 318.786765,128.736572 318.786765,116.966476 C318.786765,105.19638 308.80864,95.6548318 296.5,95.6548318 C284.19136,95.6548318 274.213235,105.19638 274.213235,116.966476 C274.213235,128.736572 284.19136,138.278119 296.5,138.278119 Z" id="Oval-5-Copy-10" stroke-width="2"></path>
                <circle id="Oval-1-Copy-2" fill="#D8D8D8" cx="296.5" cy="116.778119" r="14.5"></circle>
                <path d="M46.5,138.278119 C58.8086403,138.278119 68.7867647,128.736572 68.7867647,116.966476 C68.7867647,105.19638 58.8086403,95.6548318 46.5,95.6548318 C34.1913597,95.6548318 24.2132353,105.19638 24.2132353,116.966476 C24.2132353,128.736572 34.1913597,138.278119 46.5,138.278119 Z" id="Oval-5-Copy-11" stroke-width="2"></path>
                <circle id="Oval-1-Copy-6" fill="#D8D8D8" cx="46.5" cy="116.778119" r="14.5"></circle>
                <path d="M113.5,154.278119 C133.658393,154.278119 150,139.055801 150,120.278119 C150,101.500438 133.658393,86.2781195 113.5,86.2781195 C93.3416066,86.2781195 77,101.500438 77,120.278119 C77,139.055801 93.3416066,154.278119 113.5,154.278119 Z" id="Oval-5-Copy-4" stroke-width="2"></path>
                <circle id="Oval-1-Copy-3" fill="#B8E986" cx="114.5" cy="119.778119" r="14.5"></circle>
                <rect id="Rectangle-3-Copy-27" fill="#D8D8D8" x="375.639706" y="70.5" width="29" height="29"></rect>
                <rect id="Rectangle-1-Copy-11" stroke-width="2" x="367" y="60.5" width="45" height="49"></rect>
                <rect id="Rectangle-3-Copy-28" fill="#D8D8D8" x="428.639706" y="70.7845614" width="29" height="29"></rect>
                <rect id="Rectangle-1-Copy-12" stroke-width="2" x="420" y="60.7845614" width="45" height="49"></rect>
            </g>
            <text id="{[{c,[f]}],[{s,f}],[" sketch:type="MSTextLayer" font-family="Geometria" font-size="52" font-weight="260" fill="#000000">
                <tspan x="154" y="49">{[{c,[f]}],[{s,f}],[t],m}.</tspan>
            </text>
        </g>
    </g>
</svg>