<?xml version="1.0" encoding="UTF-8" standalone="no"?>
<svg width="878px" height="340px" viewBox="0 0 878 340" version="1.1" xmlns="http://www.w3.org/2000/svg" xmlns:xlink="http://www.w3.org/1999/xlink" xmlns:sketch="http://www.bohemiancoding.com/sketch/ns">
    <!-- Generator: Sketch 3.3.1 (12002) - http://www.bohemiancoding.com/sketch -->
    <title>ROSTER</title>
    <desc>Created with Sketch.</desc>
    <defs></defs>
    <g id="Page-1" stroke="none" stroke-width="1" fill="none" fill-rule="evenodd" sketch:type="MSPage">
        <g id="ROSTER" sketch:type="MSLayerGroup" transform="translate(-2.000000, 1.000000)">
            <path d="M647.5,137.499998 L528.5,63.7781195" id="Line-Copy-18" stroke="#979797" stroke-linecap="square" sketch:type="MSShapeGroup"></path>
            <path d="M582.499999,229.499998 L555.713235,126.999998" id="Line-Copy-29" stroke="#979797" stroke-linecap="square" sketch:type="MSShapeGroup"></path>
            <path d="M658.5,256.5 L658.5,266.499998" id="Line-Copy-32" stroke="#979797" stroke-linecap="square" sketch:type="MSShapeGroup"></path>
            <path d="M647.5,137.499998 L756.5,31.4999999" id="Line-Copy-24" stroke="#979797" stroke-linecap="square" sketch:type="MSShapeGroup"></path>
            <path d="M651.5,139.5 L598.5,302.499998" id="Line-Copy-25" stroke="#979797" stroke-linecap="square" sketch:type="MSShapeGroup"></path>
            <path d="M647.5,137.499998 L843.5,268.499998" id="Line-Copy-26" stroke="#979797" stroke-linecap="square" sketch:type="MSShapeGroup"></path>
            <path d="M657.5,314.778119 L775.5,266.778119" id="Line-Copy-5" stroke="#979797" stroke-linecap="square" sketch:type="MSShapeGroup"></path>
            <path d="M752.5,68.2781195 C772.658393,68.2781195 789,53.055801 789,34.2781195 C789,15.500438 772.658393,0.278119499 752.5,0.278119499 C732.341607,0.278119499 716,15.500438 716,34.2781195 C716,53.055801 732.341607,68.2781195 752.5,68.2781195 Z" id="Oval-5" stroke="#979797" stroke-width="2" sketch:type="MSShapeGroup"></path>
            <circle id="Oval-1-Copy-9" stroke="#979797" fill="#4990E2" sketch:type="MSShapeGroup" cx="595.5" cy="300.778119" r="14.5"></circle>
            <ellipse id="Oval-5-Copy-2" stroke="#979797" stroke-width="2" sketch:type="MSShapeGroup" cx="594" cy="300.778119" rx="36.5" ry="34"></ellipse>
            <circle id="Oval-1-Copy-11" stroke="#979797" fill="#4990E2" sketch:type="MSShapeGroup" cx="522.5" cy="65.2781195" r="14.5"></circle>
            <circle id="Oval-1-Copy-18" stroke="#979797" fill="#4990E2" sketch:type="MSShapeGroup" cx="522.5" cy="65.2781195" r="14.5"></circle>
            <path d="M521,99.2781195 C541.158393,99.2781195 557.5,84.055801 557.5,65.2781195 C557.5,46.500438 541.158393,31.2781195 521,31.2781195 C500.841607,31.2781195 484.5,46.500438 484.5,65.2781195 C484.5,84.055801 500.841607,99.2781195 521,99.2781195 Z" id="Oval-5-Copy-3" stroke="#979797" stroke-width="2" sketch:type="MSShapeGroup"></path>
            <path d="M551.5,141.278119 C563.80864,141.278119 573.786765,131.736572 573.786765,119.966476 C573.786765,108.19638 563.80864,98.6548318 551.5,98.6548318 C539.19136,98.6548318 529.213235,108.19638 529.213235,119.966476 C529.213235,131.736572 539.19136,141.278119 551.5,141.278119 Z" id="Oval-5-Copy-9" stroke="#979797" stroke-width="2" sketch:type="MSShapeGroup"></path>
            <path d="M806,114.901407 C818.30864,114.901407 828.286765,105.359859 828.286765,93.5897633 C828.286765,81.8196675 818.30864,72.2781195 806,72.2781195 C793.69136,72.2781195 783.713235,81.8196675 783.713235,93.5897633 C783.713235,105.359859 793.69136,114.901407 806,114.901407 Z" id="Oval-5-Copy-12" stroke="#979797" stroke-width="2" fill="#FFFFFF" sketch:type="MSShapeGroup"></path>
            <path d="M774,288.089763 C786.30864,288.089763 796.286765,278.548215 796.286765,266.778119 C796.286765,255.008024 786.30864,245.466476 774,245.466476 C761.69136,245.466476 751.713235,255.008024 751.713235,266.778119 C751.713235,278.548215 761.69136,288.089763 774,288.089763 Z" id="Oval-5-Copy-15" stroke="#979797" stroke-width="2" sketch:type="MSShapeGroup"></path>
            <path d="M660,337.089763 C672.30864,337.089763 682.286765,327.548215 682.286765,315.778119 C682.286765,304.008024 672.30864,294.466476 660,294.466476 C647.69136,294.466476 637.713235,304.008024 637.713235,315.778119 C637.713235,327.548215 647.69136,337.089763 660,337.089763 Z" id="Oval-5-Copy-16" stroke="#979797" stroke-width="2" sketch:type="MSShapeGroup"></path>
            <path d="M584,255.089763 C596.30864,255.089763 606.286765,245.548215 606.286765,233.778119 C606.286765,222.008024 596.30864,212.466476 584,212.466476 C571.69136,212.466476 561.713235,222.008024 561.713235,233.778119 C561.713235,245.548215 571.69136,255.089763 584,255.089763 Z" id="Oval-5-Copy-18" stroke="#979797" stroke-width="2" sketch:type="MSShapeGroup"></path>
            <circle id="Oval-1-Copy-4" stroke="#979797" fill="#4990E2" sketch:type="MSShapeGroup" cx="843.5" cy="266.778119" r="14.5"></circle>
            <ellipse id="Oval-5-Copy" stroke="#979797" stroke-width="2" sketch:type="MSShapeGroup" cx="842.5" cy="267.278119" rx="36.5" ry="34"></ellipse>
            <circle id="Oval-1-Copy-8" stroke="#979797" fill="#D8D8D8" sketch:type="MSShapeGroup" cx="584.5" cy="233.278119" r="14.5"></circle>
            <circle id="Oval-1-Copy-5" stroke="#979797" fill="#D8D8D8" sketch:type="MSShapeGroup" cx="774.5" cy="266.778119" r="14.5"></circle>
            <circle id="Oval-1-Copy-10" stroke="#979797" fill="#D8D8D8" sketch:type="MSShapeGroup" cx="659.5" cy="315.778119" r="14.5"></circle>
            <text id="{[{c,[f]}],[{s,f}],m" sketch:type="MSTextLayer" font-family="Geometria" font-size="52" font-weight="260" fill="#000000">
                <tspan x="0.5" y="85.0441195">{[{c,[f]}],[{s,f}],m}.</tspan>
            </text>
            <text id="{typing,_}" sketch:type="MSTextLayer" font-family="Geometria" font-size="24" font-weight="260" fill="#6D6D6D">
                <tspan x="119.566176" y="183.278119">{typing,_}</tspan>
            </text>
            <rect id="Rectangle-3-Copy-14" stroke="#979797" fill="#D8D8D8" sketch:type="MSShapeGroup" x="637.713235" y="121.278119" width="29" height="29"></rect>
            <rect id="Rectangle-3-Copy-15" stroke="#979797" fill="#D8D8D8" sketch:type="MSShapeGroup" x="71.7132353" y="160.278119" width="29" height="29"></rect>
            <rect id="Rectangle-3-Copy-16" stroke="#979797" fill="#D8D8D8" sketch:type="MSShapeGroup" x="71.7132353" y="200.778119" width="29" height="29"></rect>
            <text id="{message,_,_,_,_}" sketch:type="MSTextLayer" font-family="Geometria" font-size="24" font-weight="260" fill="#6D6D6D">
                <tspan x="121" y="223">{message,_,_,_,_}</tspan>
            </text>
            <circle id="Oval-1-Copy" stroke="#979797" fill="#B8E986" sketch:type="MSShapeGroup" cx="753.5" cy="33.7781195" r="14.5"></circle>
            <circle id="Oval-1-Copy-12" stroke="#979797" fill="#D8D8D8" sketch:type="MSShapeGroup" cx="806.213235" cy="93.4014072" r="14.5"></circle>
            <circle id="Oval-1" stroke="#979797" fill="#D8D8D8" sketch:type="MSShapeGroup" cx="551.5" cy="119.778119" r="14.5"></circle>
        </g>
    </g>
</svg>