<?xml version="1.0" encoding="UTF-8" standalone="no"?>
<svg width="453px" height="598px" viewBox="0 0 453 598" version="1.1" xmlns="http://www.w3.org/2000/svg" xmlns:xlink="http://www.w3.org/1999/xlink" xmlns:sketch="http://www.bohemiancoding.com/sketch/ns">
    <!-- Generator: Sketch 3.3.1 (12002) - http://www.bohemiancoding.com/sketch -->
    <title>Process</title>
    <desc>Created with Sketch.</desc>
    <defs></defs>
    <g id="Page-1" stroke="none" stroke-width="1" fill="none" fill-rule="evenodd" sketch:type="MSPage">
        <g id="Process" sketch:type="MSLayerGroup">
            <path d="M70.4345984,235.930877 L104.434598,161.930877" id="Line-Copy-6" stroke="#979797" stroke-linecap="square" sketch:type="MSShapeGroup"></path>
            <path d="M70.4345984,235.266 L109.434598,314.266" id="Line-Copy-10" stroke="#979797" stroke-linecap="square" sketch:type="MSShapeGroup"></path>
            <path d="M13.4345984,479.266 L109.434598,314.266" id="Line-Copy-13" stroke="#979797" stroke-linecap="square" sketch:type="MSShapeGroup"></path>
            <path d="M109.434598,413.266 L99.4345984,474.266" id="Line-Copy-20" stroke="#979797" stroke-linecap="square" sketch:type="MSShapeGroup"></path>
            <path d="M114.434598,528.266 L99.4345984,474.266" id="Line-Copy-21" stroke="#979797" stroke-linecap="square" sketch:type="MSShapeGroup"></path>
            <path d="M93.4345984,537.266 L57.4345984,489.266" id="Line-Copy-22" stroke="#979797" stroke-linecap="square" sketch:type="MSShapeGroup"></path>
            <path d="M87.4345984,557.266 L15.4345984,491.266" id="Line-Copy-23" stroke="#979797" stroke-linecap="square" sketch:type="MSShapeGroup"></path>
            <path d="M109.434598,413.266 L61.4345984,468.266" id="Line-Copy-19" stroke="#979797" stroke-linecap="square" sketch:type="MSShapeGroup"></path>
            <path d="M104.434598,237.266 L104.434598,161.266" id="Line-Copy-7" stroke="#979797" stroke-linecap="square" sketch:type="MSShapeGroup"></path>
            <path d="M104.434598,237.266 L104.434598,308.266" id="Line-Copy-11" stroke="#979797" stroke-linecap="square" sketch:type="MSShapeGroup"></path>
            <path d="M145.434598,237.266 L104.434598,161.266" id="Line-Copy-9" stroke="#979797" stroke-linecap="square" sketch:type="MSShapeGroup"></path>
            <path d="M145.434598,237.266 L108.434598,314.266" id="Line-Copy-12" stroke="#979797" stroke-linecap="square" sketch:type="MSShapeGroup"></path>
            <path d="M142.434598,365.266 L108.434598,314.266" id="Line-Copy-15" stroke="#979797" stroke-linecap="square" sketch:type="MSShapeGroup"></path>
            <path d="M141.434598,377.266 L108.434598,416.266" id="Line-Copy-16" stroke="#979797" stroke-linecap="square" sketch:type="MSShapeGroup"></path>
            <path d="M110.434599,165.930877 L60.4345984,97.9308772" id="Line-Copy-14" stroke="#979797" stroke-linecap="square" sketch:type="MSShapeGroup"></path>
            <path d="M110.434599,165.930877 L110.434599,27.9308772" id="Line-Copy-17" stroke="#979797" stroke-linecap="square" sketch:type="MSShapeGroup"></path>
            <rect id="Rectangle-3-Copy-5" stroke="#979797" fill="#D8D8D8" sketch:type="MSShapeGroup" x="131.750775" y="223.459737" width="29" height="29"></rect>
            <rect id="Rectangle-3-Copy-8" stroke="#979797" fill="#D8D8D8" sketch:type="MSShapeGroup" x="134.934598" y="347.697992" width="29" height="29"></rect>
            <rect id="Rectangle-3-Copy-11" stroke="#979797" fill="#D8D8D8" sketch:type="MSShapeGroup" x="43.4640102" y="460.766" width="29" height="29"></rect>
            <rect id="Rectangle-3-Copy-10" stroke="#979797" fill="#D8D8D8" sketch:type="MSShapeGroup" x="0.934598401" y="460.766" width="29" height="29"></rect>
            <rect id="Rectangle-3-Copy-12" stroke="#979797" fill="#D8D8D8" sketch:type="MSShapeGroup" x="85.6478337" y="460.766" width="29" height="29"></rect>
            <rect id="Rectangle-3-Copy-6" stroke="#979797" fill="#D8D8D8" sketch:type="MSShapeGroup" x="94.4640102" y="223.459737" width="29" height="29"></rect>
            <rect id="Rectangle-3-Copy-7" stroke="#979797" fill="#D8D8D8" sketch:type="MSShapeGroup" x="57.9640102" y="223.459737" width="29" height="29"></rect>
            <rect id="Rectangle-3-Copy-9" stroke="#979797" fill="#D8D8D8" sketch:type="MSShapeGroup" x="96.9345984" y="10.5897633" width="29" height="29"></rect>
            <rect id="Rectangle-1-Copy-10" stroke="#979797" stroke-width="2" sketch:type="MSShapeGroup" x="87.9345984" y="0.589763334" width="45" height="49"></rect>
            <circle id="Oval-1-Copy-28" stroke="#979797" fill="#B8E986" sketch:type="MSShapeGroup" cx="108.96401" cy="162.648094" r="14.5"></circle>
            <ellipse id="Oval-1-Copy-22" stroke="#979797" fill="#D8D8D8" sketch:type="MSShapeGroup" cx="107.721363" cy="416.632923" rx="14.5" ry="14.5"></ellipse>
            <path d="M107.934598,437.944567 C120.243239,437.944567 130.221363,428.403019 130.221363,416.632923 C130.221363,404.862827 120.243239,395.321279 107.934598,395.321279 C95.6259581,395.321279 85.6478337,404.862827 85.6478337,416.632923 C85.6478337,428.403019 95.6259581,437.944567 107.934598,437.944567 Z" id="Oval-5-Copy-22" stroke="#979797" stroke-width="2" sketch:type="MSShapeGroup"></path>
            <circle id="Oval-1-Copy-35" stroke="#979797" fill="#B8E986" sketch:type="MSShapeGroup" cx="108.96401" cy="312.632923" r="14.5"></circle>
            <ellipse id="Oval-5-Copy-35" stroke="#979797" stroke-width="2" sketch:type="MSShapeGroup" cx="108.96401" cy="162.648094" rx="36.5" ry="34"></ellipse>
            <ellipse id="Oval-5-Copy-37" stroke="#979797" stroke-width="2" sketch:type="MSShapeGroup" cx="120.221363" cy="562.766" rx="36.5" ry="34"></ellipse>
            <path d="M57.7507749,112.742521 C70.0594151,112.742521 80.0375396,103.200973 80.0375396,91.4308772 C80.0375396,79.6607813 70.0594151,70.1192333 57.7507749,70.1192333 C45.4421346,70.1192333 35.4640102,79.6607813 35.4640102,91.4308772 C35.4640102,103.200973 45.4421346,112.742521 57.7507749,112.742521 Z" id="Oval-5-Copy-38" stroke="#979797" stroke-width="2" sketch:type="MSShapeGroup"></path>
            <circle id="Oval-1-Copy-17" stroke="#979797" fill="#D8D8D8" sketch:type="MSShapeGroup" cx="58.2507749" cy="90.9308772" r="14.5"></circle>
            <text id="p/{[a],[m]}" sketch:type="MSTextLayer" font-family="Geometria" font-size="52" font-weight="260" fill="#000000">
                <tspan x="197.352941" y="178.312971">p/{[a],[m]}</tspan>
            </text>
        </g>
    </g>
</svg>