<?xml version="1.0" encoding="UTF-8" standalone="no"?>
<svg width="616px" height="241px" viewBox="0 0 616 241" version="1.1" xmlns="http://www.w3.org/2000/svg" xmlns:xlink="http://www.w3.org/1999/xlink" xmlns:sketch="http://www.bohemiancoding.com/sketch/ns">
    <!-- Generator: Sketch 3.3.1 (12002) - http://www.bohemiancoding.com/sketch -->
    <title>ITERATORS</title>
    <desc>Created with Sketch.</desc>
    <defs></defs>
    <g id="Page-1" stroke="none" stroke-width="1" fill="none" fill-rule="evenodd" sketch:type="MSPage">
        <g id="ITERATORS" sketch:type="MSLayerGroup" transform="translate(0.000000, -11.000000)">
            <path d="M158.5,160.5 L240.5,140.5" id="Line-Copy-33" stroke="#979797" stroke-linecap="square" sketch:type="MSShapeGroup"></path>
            <path d="M309.5,155.5 L392.5,143.5" id="Line-Copy-30" stroke="#979797" stroke-linecap="square" sketch:type="MSShapeGroup"></path>
            <path d="M234.5,142.5 L304.5,162.5" id="Line-Copy-31" stroke="#979797" stroke-linecap="square" sketch:type="MSShapeGroup"></path>
            <path d="M93.5,142.5 L163.5,162.5" id="Line-Copy-35" stroke="#979797" stroke-linecap="square" sketch:type="MSShapeGroup"></path>
            <rect id="Rectangle-3-Copy-46" stroke="#979797" fill="#D8D8D8" sketch:type="MSShapeGroup" x="293" y="143" width="29" height="29"></rect>
            <rect id="Rectangle-3-Copy-48" stroke="#979797" fill="#D8D8D8" sketch:type="MSShapeGroup" x="150" y="143" width="29" height="29"></rect>
            <rect id="Rectangle-3-Copy-49" stroke="#979797" fill="#D8D8D8" sketch:type="MSShapeGroup" x="223" y="129" width="29" height="29"></rect>
            <path d="M8.5,160.5 L90.5,140.5" id="Line-Copy-34" stroke="#979797" stroke-linecap="square" sketch:type="MSShapeGroup"></path>
            <rect id="Rectangle-3-Copy-50" stroke="#979797" fill="#D8D8D8" sketch:type="MSShapeGroup" x="0" y="143" width="29" height="29"></rect>
            <rect id="Rectangle-3-Copy-51" stroke="#979797" fill="#D8D8D8" sketch:type="MSShapeGroup" x="73" y="129" width="29" height="29"></rect>
            <path d="M396,170 C410.359403,170 422,159.254834 422,146 C422,132.745166 410.359403,122 396,122 C381.640597,122 370,132.745166 370,146 C370,159.254834 381.640597,170 396,170 Z" id="Oval-5-Copy-43" stroke="#979797" stroke-width="2" sketch:type="MSShapeGroup"></path>
            <circle id="Oval-1-Copy-38" stroke="#979797" fill="#D8D8D8" sketch:type="MSShapeGroup" cx="396.5" cy="146.5" r="14.5"></circle>
            <path d="M88.5,240.5 L170.5,220.5" id="Line-Copy-38" stroke="#979797" stroke-linecap="square" sketch:type="MSShapeGroup"></path>
            <path d="M239.5,235.5 L322.5,223.5" id="Line-Copy-36" stroke="#979797" stroke-linecap="square" sketch:type="MSShapeGroup"></path>
            <path d="M164.5,222.5 L234.5,242.5" id="Line-Copy-37" stroke="#979797" stroke-linecap="square" sketch:type="MSShapeGroup"></path>
            <rect id="Rectangle-3-Copy-52" stroke="#979797" fill="#D8D8D8" sketch:type="MSShapeGroup" x="223" y="223" width="29" height="29"></rect>
            <rect id="Rectangle-3-Copy-53" stroke="#979797" fill="#D8D8D8" sketch:type="MSShapeGroup" x="80" y="223" width="29" height="29"></rect>
            <rect id="Rectangle-3-Copy-54" stroke="#979797" fill="#D8D8D8" sketch:type="MSShapeGroup" x="153" y="209" width="29" height="29"></rect>
            <path d="M326,250 C340.359403,250 352,239.254834 352,226 C352,212.745166 340.359403,202 326,202 C311.640597,202 300,212.745166 300,226 C300,239.254834 311.640597,250 326,250 Z" id="Oval-5-Copy-44" stroke="#979797" stroke-width="2" sketch:type="MSShapeGroup"></path>
            <circle id="Oval-1-Copy-39" stroke="#979797" fill="#D8D8D8" sketch:type="MSShapeGroup" cx="326.5" cy="226.5" r="14.5"></circle>
            <text id="{id,next,prev,…}." sketch:type="MSTextLayer" font-family="Geometria" font-size="48" font-weight="260" fill="#000000">
                <tspan x="270" y="46">{id,next,prev,…}.</tspan>
            </text>
        </g>
    </g>
</svg>